<?xml version="1.0" encoding="UTF-8" standalone="no"?>
<svg
   xmlns:dc="http://purl.org/dc/elements/1.1/"
   xmlns:cc="http://creativecommons.org/ns#"
   xmlns:rdf="http://www.w3.org/1999/02/22-rdf-syntax-ns#"
   xmlns:svg="http://www.w3.org/2000/svg"
   xmlns="http://www.w3.org/2000/svg"
   viewBox="0 0 604.724 340.15732"
   height="340.15732"
   width="604.724"
   xml:space="preserve"
   id="svg2"
   version="1.1"><metadata
     id="metadata8"><rdf:RDF><cc:Work
         rdf:about=""><dc:format>image/svg+xml</dc:format><dc:type
           rdf:resource="http://purl.org/dc/dcmitype/StillImage" /></cc:Work></rdf:RDF></metadata><defs
     id="defs6"><clipPath
       id="clipPath54"
       clipPathUnits="userSpaceOnUse"><path
         id="path52"
         d="M 5.1424,0 C 5.1424,2.84009 2.84009,5.1424 0,5.1424 -2.84009,5.1424 -5.1424,2.84009 -5.1424,0 c 0,-2.84009 2.30231,-5.1424 5.1424,-5.1424 2.84009,0 5.1424,2.30231 5.1424,5.1424 z" /></clipPath><clipPath
       id="clipPath68"
       clipPathUnits="userSpaceOnUse"><path
         id="path66"
         d="M 0,0 H 100 V 100 H 0 Z" /></clipPath><radialGradient
       id="radialGradient80"
       gradientUnits="userSpaceOnUse"
       r="50.000641"
       cy="50.000641"
       cx="50.000641"
       fy="60.000759"
       fx="40.000519"><stop
         id="stop70"
         offset="0"
         style="stop-opacity:1;stop-color:#e2eeff" /><stop
         id="stop72"
         offset="9.00009"
         style="stop-opacity:1;stop-color:#6facff" /><stop
         id="stop74"
         offset="18.00021"
         style="stop-opacity:1;stop-color:#2c65b3" /><stop
         id="stop76"
         offset="25.00032"
         style="stop-opacity:1;stop-color:#204880" /><stop
         id="stop78"
         offset="50.00064"
         style="stop-opacity:1;stop-color:#000000" /></radialGradient><clipPath
       id="clipPath96"
       clipPathUnits="userSpaceOnUse"><path
         id="path94"
         d="m 33.48921,21.2601 c 0,2.84009 -2.30232,5.1424 -5.14241,5.1424 -2.84009,0 -5.14241,-2.30231 -5.14241,-5.1424 0,-2.8401 2.30232,-5.14241 5.14241,-5.14241 2.84009,0 5.14241,2.30231 5.14241,5.14241 z" /></clipPath><clipPath
       id="clipPath110"
       clipPathUnits="userSpaceOnUse"><path
         id="path108"
         d="M 0,0 H 100 V 100 H 0 Z" /></clipPath><radialGradient
       id="radialGradient122"
       gradientUnits="userSpaceOnUse"
       r="50.000641"
       cy="50.000641"
       cx="50.000641"
       fy="60.000759"
       fx="40.000519"><stop
         id="stop112"
         offset="0"
         style="stop-opacity:1;stop-color:#e2eeff" /><stop
         id="stop114"
         offset="9.00009"
         style="stop-opacity:1;stop-color:#6facff" /><stop
         id="stop116"
         offset="18.00021"
         style="stop-opacity:1;stop-color:#2c65b3" /><stop
         id="stop118"
         offset="25.00032"
         style="stop-opacity:1;stop-color:#204880" /><stop
         id="stop120"
         offset="50.00064"
         style="stop-opacity:1;stop-color:#000000" /></radialGradient><clipPath
       id="clipPath140"
       clipPathUnits="userSpaceOnUse"><path
         id="path138"
         d="m 12.22908,14.17339 c 0,2.8401 -2.30231,5.14241 -5.14239,5.14241 -2.84011,0 -5.14242,-2.30231 -5.14242,-5.14241 0,-2.84009 2.30231,-5.1424 5.14242,-5.1424 2.84008,0 5.14239,2.30231 5.14239,5.1424 z" /></clipPath><clipPath
       id="clipPath154"
       clipPathUnits="userSpaceOnUse"><path
         id="path152"
         d="M 0,0 H 100 V 100 H 0 Z" /></clipPath><radialGradient
       id="radialGradient166"
       gradientUnits="userSpaceOnUse"
       r="50.000641"
       cy="50.000641"
       cx="50.000641"
       fy="60.000759"
       fx="40.000519"><stop
         id="stop156"
         offset="0"
         style="stop-opacity:1;stop-color:#e2eeff" /><stop
         id="stop158"
         offset="9.00009"
         style="stop-opacity:1;stop-color:#6facff" /><stop
         id="stop160"
         offset="18.00021"
         style="stop-opacity:1;stop-color:#2c65b3" /><stop
         id="stop162"
         offset="25.00032"
         style="stop-opacity:1;stop-color:#204880" /><stop
         id="stop164"
         offset="50.00064"
         style="stop-opacity:1;stop-color:#000000" /></radialGradient><clipPath
       id="clipPath184"
       clipPathUnits="userSpaceOnUse"><path
         id="path182"
         d="m 7.97725,28.3468 c 0,2.84009 -2.30231,5.14241 -5.14241,5.14241 -2.84007,0 -5.14238,-2.30232 -5.14238,-5.14241 0,-2.84009 2.30231,-5.14241 5.14238,-5.14241 2.8401,0 5.14241,2.30232 5.14241,5.14241 z" /></clipPath><clipPath
       id="clipPath198"
       clipPathUnits="userSpaceOnUse"><path
         id="path196"
         d="M 0,0 H 100 V 100 H 0 Z" /></clipPath><radialGradient
       id="radialGradient210"
       gradientUnits="userSpaceOnUse"
       r="50.000641"
       cy="50.000641"
       cx="50.000641"
       fy="60.000759"
       fx="40.000519"><stop
         id="stop200"
         offset="0"
         style="stop-opacity:1;stop-color:#e2eeff" /><stop
         id="stop202"
         offset="9.00009"
         style="stop-opacity:1;stop-color:#6facff" /><stop
         id="stop204"
         offset="18.00021"
         style="stop-opacity:1;stop-color:#2c65b3" /><stop
         id="stop206"
         offset="25.00032"
         style="stop-opacity:1;stop-color:#204880" /><stop
         id="stop208"
         offset="50.00064"
         style="stop-opacity:1;stop-color:#000000" /></radialGradient><clipPath
       id="clipPath228"
       clipPathUnits="userSpaceOnUse"><path
         id="path226"
         d="m 26.4025,11.33855 c 0,2.84008 -2.30231,5.14239 -5.1424,5.14239 -2.8401,0 -5.14241,-2.30231 -5.14241,-5.14239 0,-2.84011 2.30231,-5.14241 5.14241,-5.14241 2.84009,0 5.1424,2.3023 5.1424,5.14241 z" /></clipPath><clipPath
       id="clipPath242"
       clipPathUnits="userSpaceOnUse"><path
         id="path240"
         d="M 0,0 H 100 V 100 H 0 Z" /></clipPath><radialGradient
       id="radialGradient254"
       gradientUnits="userSpaceOnUse"
       r="50.000641"
       cy="50.000641"
       cx="50.000641"
       fy="60.000759"
       fx="40.000519"><stop
         id="stop244"
         offset="0"
         style="stop-opacity:1;stop-color:#e2eeff" /><stop
         id="stop246"
         offset="9.00009"
         style="stop-opacity:1;stop-color:#6facff" /><stop
         id="stop248"
         offset="18.00021"
         style="stop-opacity:1;stop-color:#2c65b3" /><stop
         id="stop250"
         offset="25.00032"
         style="stop-opacity:1;stop-color:#204880" /><stop
         id="stop252"
         offset="50.00064"
         style="stop-opacity:1;stop-color:#000000" /></radialGradient><clipPath
       id="clipPath272"
       clipPathUnits="userSpaceOnUse"><path
         id="path270"
         d="m 24.98506,-5.66927 c 0,2.84009 -2.30231,5.14241 -5.14239,5.14241 -2.84011,0 -5.14241,-2.30232 -5.14241,-5.14241 0,-2.84008 2.3023,-5.14241 5.14241,-5.14241 2.84008,0 5.14239,2.30233 5.14239,5.14241 z" /></clipPath><clipPath
       id="clipPath286"
       clipPathUnits="userSpaceOnUse"><path
         id="path284"
         d="M 0,0 H 100 V 100 H 0 Z" /></clipPath><radialGradient
       id="radialGradient298"
       gradientUnits="userSpaceOnUse"
       r="50.000641"
       cy="50.000641"
       cx="50.000641"
       fy="60.000759"
       fx="40.000519"><stop
         id="stop288"
         offset="0"
         style="stop-opacity:1;stop-color:#e2eeff" /><stop
         id="stop290"
         offset="9.00009"
         style="stop-opacity:1;stop-color:#6facff" /><stop
         id="stop292"
         offset="18.00021"
         style="stop-opacity:1;stop-color:#2c65b3" /><stop
         id="stop294"
         offset="25.00032"
         style="stop-opacity:1;stop-color:#204880" /><stop
         id="stop296"
         offset="50.00064"
         style="stop-opacity:1;stop-color:#000000" /></radialGradient><clipPath
       id="clipPath316"
       clipPathUnits="userSpaceOnUse"><path
         id="path314"
         d="m 231.91687,14.17339 c 0,2.8401 -2.30231,5.14241 -5.14239,5.14241 -2.84011,0 -5.14242,-2.30231 -5.14242,-5.14241 0,-2.84009 2.30231,-5.1424 5.14242,-5.1424 2.84008,0 5.14239,2.30231 5.14239,5.1424 z" /></clipPath><clipPath
       id="clipPath330"
       clipPathUnits="userSpaceOnUse"><path
         id="path328"
         d="M 0,0 H 100 V 100 H 0 Z" /></clipPath><radialGradient
       id="radialGradient342"
       gradientUnits="userSpaceOnUse"
       r="50.000641"
       cy="50.000641"
       cx="50.000641"
       fy="60.000759"
       fx="40.000519"><stop
         id="stop332"
         offset="0"
         style="stop-opacity:1;stop-color:#dffbe0" /><stop
         id="stop334"
         offset="9.00009"
         style="stop-opacity:1;stop-color:#61ed66" /><stop
         id="stop336"
         offset="18.00021"
         style="stop-opacity:1;stop-color:#1fa124" /><stop
         id="stop338"
         offset="25.00032"
         style="stop-opacity:1;stop-color:#167319" /><stop
         id="stop340"
         offset="50.00064"
         style="stop-opacity:1;stop-color:#000000" /></radialGradient><clipPath
       id="clipPath436"
       clipPathUnits="userSpaceOnUse"><path
         id="path434"
         d="m 5.1424,-70.867 c 0,2.84008 -2.30231,5.14239 -5.1424,5.14239 -2.84009,0 -5.1424,-2.30231 -5.1424,-5.14239 0,-2.8401 2.30231,-5.14241 5.1424,-5.14241 2.84009,0 5.1424,2.30231 5.1424,5.14241 z" /></clipPath><clipPath
       id="clipPath450"
       clipPathUnits="userSpaceOnUse"><path
         id="path448"
         d="M 0,0 H 100 V 100 H 0 Z" /></clipPath><radialGradient
       id="radialGradient462"
       gradientUnits="userSpaceOnUse"
       r="50.000641"
       cy="50.000641"
       cx="50.000641"
       fy="60.000759"
       fx="40.000519"><stop
         id="stop452"
         offset="0"
         style="stop-opacity:1;stop-color:#e2eeff" /><stop
         id="stop454"
         offset="9.00009"
         style="stop-opacity:1;stop-color:#6facff" /><stop
         id="stop456"
         offset="18.00021"
         style="stop-opacity:1;stop-color:#2c65b3" /><stop
         id="stop458"
         offset="25.00032"
         style="stop-opacity:1;stop-color:#204880" /><stop
         id="stop460"
         offset="50.00064"
         style="stop-opacity:1;stop-color:#000000" /></radialGradient><clipPath
       id="clipPath482"
       clipPathUnits="userSpaceOnUse"><path
         id="path480"
         d="m 33.48921,-49.6069 c 0,2.84008 -2.30232,5.14239 -5.14241,5.14239 -2.84009,0 -5.14241,-2.30231 -5.14241,-5.14239 0,-2.8401 2.30232,-5.14241 5.14241,-5.14241 2.84009,0 5.14241,2.30231 5.14241,5.14241 z" /></clipPath><clipPath
       id="clipPath496"
       clipPathUnits="userSpaceOnUse"><path
         id="path494"
         d="M 0,0 H 100 V 100 H 0 Z" /></clipPath><radialGradient
       id="radialGradient508"
       gradientUnits="userSpaceOnUse"
       r="50.000641"
       cy="50.000641"
       cx="50.000641"
       fy="60.000759"
       fx="40.000519"><stop
         id="stop498"
         offset="0"
         style="stop-opacity:1;stop-color:#e2eeff" /><stop
         id="stop500"
         offset="9.00009"
         style="stop-opacity:1;stop-color:#6facff" /><stop
         id="stop502"
         offset="18.00021"
         style="stop-opacity:1;stop-color:#2c65b3" /><stop
         id="stop504"
         offset="25.00032"
         style="stop-opacity:1;stop-color:#204880" /><stop
         id="stop506"
         offset="50.00064"
         style="stop-opacity:1;stop-color:#000000" /></radialGradient><clipPath
       id="clipPath528"
       clipPathUnits="userSpaceOnUse"><path
         id="path526"
         d="m 12.22908,-56.69362 c 0,2.8401 -2.30231,5.14241 -5.14239,5.14241 -2.84011,0 -5.14242,-2.30231 -5.14242,-5.14241 0,-2.84008 2.30231,-5.14239 5.14242,-5.14239 2.84008,0 5.14239,2.30231 5.14239,5.14239 z" /></clipPath><clipPath
       id="clipPath542"
       clipPathUnits="userSpaceOnUse"><path
         id="path540"
         d="M 0,0 H 100 V 100 H 0 Z" /></clipPath><radialGradient
       id="radialGradient554"
       gradientUnits="userSpaceOnUse"
       r="50.000641"
       cy="50.000641"
       cx="50.000641"
       fy="60.000759"
       fx="40.000519"><stop
         id="stop544"
         offset="0"
         style="stop-opacity:1;stop-color:#e2eeff" /><stop
         id="stop546"
         offset="9.00009"
         style="stop-opacity:1;stop-color:#6facff" /><stop
         id="stop548"
         offset="18.00021"
         style="stop-opacity:1;stop-color:#2c65b3" /><stop
         id="stop550"
         offset="25.00032"
         style="stop-opacity:1;stop-color:#204880" /><stop
         id="stop552"
         offset="50.00064"
         style="stop-opacity:1;stop-color:#000000" /></radialGradient><clipPath
       id="clipPath574"
       clipPathUnits="userSpaceOnUse"><path
         id="path572"
         d="m 7.97725,-42.5202 c 0,2.8401 -2.30231,5.14241 -5.14241,5.14241 -2.84007,0 -5.14238,-2.30231 -5.14238,-5.14241 0,-2.84009 2.30231,-5.1424 5.14238,-5.1424 2.8401,0 5.14241,2.30231 5.14241,5.1424 z" /></clipPath><clipPath
       id="clipPath588"
       clipPathUnits="userSpaceOnUse"><path
         id="path586"
         d="M 0,0 H 100 V 100 H 0 Z" /></clipPath><radialGradient
       id="radialGradient600"
       gradientUnits="userSpaceOnUse"
       r="50.000641"
       cy="50.000641"
       cx="50.000641"
       fy="60.000759"
       fx="40.000519"><stop
         id="stop590"
         offset="0"
         style="stop-opacity:1;stop-color:#e2eeff" /><stop
         id="stop592"
         offset="9.00009"
         style="stop-opacity:1;stop-color:#6facff" /><stop
         id="stop594"
         offset="18.00021"
         style="stop-opacity:1;stop-color:#2c65b3" /><stop
         id="stop596"
         offset="25.00032"
         style="stop-opacity:1;stop-color:#204880" /><stop
         id="stop598"
         offset="50.00064"
         style="stop-opacity:1;stop-color:#000000" /></radialGradient><clipPath
       id="clipPath620"
       clipPathUnits="userSpaceOnUse"><path
         id="path618"
         d="m 26.4025,-59.52846 c 0,2.84009 -2.30231,5.1424 -5.1424,5.1424 -2.8401,0 -5.14241,-2.30231 -5.14241,-5.1424 0,-2.8401 2.30231,-5.14241 5.14241,-5.14241 2.84009,0 5.1424,2.30231 5.1424,5.14241 z" /></clipPath><clipPath
       id="clipPath634"
       clipPathUnits="userSpaceOnUse"><path
         id="path632"
         d="M 0,0 H 100 V 100 H 0 Z" /></clipPath><radialGradient
       id="radialGradient646"
       gradientUnits="userSpaceOnUse"
       r="50.000641"
       cy="50.000641"
       cx="50.000641"
       fy="60.000759"
       fx="40.000519"><stop
         id="stop636"
         offset="0"
         style="stop-opacity:1;stop-color:#e2eeff" /><stop
         id="stop638"
         offset="9.00009"
         style="stop-opacity:1;stop-color:#6facff" /><stop
         id="stop640"
         offset="18.00021"
         style="stop-opacity:1;stop-color:#2c65b3" /><stop
         id="stop642"
         offset="25.00032"
         style="stop-opacity:1;stop-color:#204880" /><stop
         id="stop644"
         offset="50.00064"
         style="stop-opacity:1;stop-color:#000000" /></radialGradient><clipPath
       id="clipPath666"
       clipPathUnits="userSpaceOnUse"><path
         id="path664"
         d="m 24.98506,-76.53629 c 0,2.84011 -2.30231,5.14241 -5.14239,5.14241 -2.84011,0 -5.14241,-2.3023 -5.14241,-5.14241 0,-2.84008 2.3023,-5.14239 5.14241,-5.14239 2.84008,0 5.14239,2.30231 5.14239,5.14239 z" /></clipPath><clipPath
       id="clipPath680"
       clipPathUnits="userSpaceOnUse"><path
         id="path678"
         d="M 0,0 H 100 V 100 H 0 Z" /></clipPath><radialGradient
       id="radialGradient692"
       gradientUnits="userSpaceOnUse"
       r="50.000641"
       cy="50.000641"
       cx="50.000641"
       fy="60.000759"
       fx="40.000519"><stop
         id="stop682"
         offset="0"
         style="stop-opacity:1;stop-color:#e2eeff" /><stop
         id="stop684"
         offset="9.00009"
         style="stop-opacity:1;stop-color:#6facff" /><stop
         id="stop686"
         offset="18.00021"
         style="stop-opacity:1;stop-color:#2c65b3" /><stop
         id="stop688"
         offset="25.00032"
         style="stop-opacity:1;stop-color:#204880" /><stop
         id="stop690"
         offset="50.00064"
         style="stop-opacity:1;stop-color:#000000" /></radialGradient><clipPath
       id="clipPath710"
       clipPathUnits="userSpaceOnUse"><path
         id="path708"
         d="m 19.0932,-59.29317 c 0,4.54417 -3.68368,8.22788 -8.22787,8.22788 -4.54418,0 -8.22786,-3.68371 -8.22786,-8.22788 0,-4.54417 3.68368,-8.22787 8.22786,-8.22787 4.54419,0 8.22787,3.6837 8.22787,8.22787 z" /></clipPath><clipPath
       id="clipPath724"
       clipPathUnits="userSpaceOnUse"><path
         id="path722"
         d="M 0,0 H 100 V 100 H 0 Z" /></clipPath><radialGradient
       id="radialGradient736"
       gradientUnits="userSpaceOnUse"
       r="50.000641"
       cy="50.000641"
       cx="50.000641"
       fy="60.000759"
       fx="40.000519"><stop
         id="stop726"
         offset="0"
         style="stop-opacity:1;stop-color:#fff0e0" /><stop
         id="stop728"
         offset="9.00009"
         style="stop-opacity:1;stop-color:#ffb366" /><stop
         id="stop730"
         offset="18.00021"
         style="stop-opacity:1;stop-color:#b36b24" /><stop
         id="stop732"
         offset="25.00032"
         style="stop-opacity:1;stop-color:#804c19" /><stop
         id="stop734"
         offset="50.00064"
         style="stop-opacity:1;stop-color:#000000" /></radialGradient><clipPath
       id="clipPath754"
       clipPathUnits="userSpaceOnUse"><path
         id="path752"
         d="m 231.91687,-56.69362 c 0,2.8401 -2.30231,5.14241 -5.14239,5.14241 -2.84011,0 -5.14242,-2.30231 -5.14242,-5.14241 0,-2.84008 2.30231,-5.14239 5.14242,-5.14239 2.84008,0 5.14239,2.30231 5.14239,5.14239 z" /></clipPath><clipPath
       id="clipPath768"
       clipPathUnits="userSpaceOnUse"><path
         id="path766"
         d="M 0,0 H 100 V 100 H 0 Z" /></clipPath><radialGradient
       id="radialGradient780"
       gradientUnits="userSpaceOnUse"
       r="50.000641"
       cy="50.000641"
       cx="50.000641"
       fy="60.000759"
       fx="40.000519"><stop
         id="stop770"
         offset="0"
         style="stop-opacity:1;stop-color:#dffbe0" /><stop
         id="stop772"
         offset="9.00009"
         style="stop-opacity:1;stop-color:#61ed66" /><stop
         id="stop774"
         offset="18.00021"
         style="stop-opacity:1;stop-color:#1fa124" /><stop
         id="stop776"
         offset="25.00032"
         style="stop-opacity:1;stop-color:#167319" /><stop
         id="stop778"
         offset="50.00064"
         style="stop-opacity:1;stop-color:#000000" /></radialGradient></defs><g
     transform="matrix(1.3333333,0,0,-1.3333333,0,340.15733)"
     id="g10"><g
       id="g12"><path
         id="path14"
         style="fill:#ffffff;fill-opacity:1;fill-rule:nonzero;stroke:none"
         d="M 0,0 H 453.543 V 255.118 H 0 Z" /></g><text
       id="text18"
       style="font-variant:normal;font-weight:normal;font-size:5.9776001px;font-family:LMSans8;-inkscape-font-specification:LMSans8-Regular;writing-mode:lr-tb;fill:#adade0;fill-opacity:1;fill-rule:nonzero;stroke:none"
       transform="matrix(1,0,0,-1,434.831,3.487)"><tspan
         id="tspan16"
         y="0"
         x="0 3.1753011 6.3506021 9.5259037 12.701204">28/41</tspan></text>
<text
       id="text22"
       style="font-variant:normal;font-weight:normal;font-size:14.34619999px;font-family:LMSans12;-inkscape-font-specification:LMSans12-Regular;writing-mode:lr-tb;fill:#3333b3;fill-opacity:1;fill-rule:nonzero;stroke:none"
       transform="matrix(1,0,0,-1,8.504,234.061)"><tspan
         id="tspan20"
         y="0"
         x="0 8.9333792 16.139475 22.863539 28.247667 39.167995 46.191895 50.094063 57.117962 65.711334 75.034927 81.371643 86.14463 93.350723 99.594193 104.97832 109.66092 119.50671 126.71281">Phase2.1:Barnes-Hut</tspan></text>
<text
       id="text36"
       style="font-variant:normal;font-weight:normal;font-size:10.90909958px;font-family:LMSans10;-inkscape-font-specification:LMSans10-Regular;writing-mode:lr-tb;fill:#000000;fill-opacity:1;fill-rule:nonzero;stroke:none"
       transform="matrix(1,0,0,-1,28.346,209.804)"><tspan
         id="tspan24"
         y="0"
         x="0 6.6665511 12.303283 16.484741 21.726564 30.392752 39.058941 43.908035 49.544769 52.877499 58.11932 62.300777 66.482239 72.118973 77.755699 86.853889 91.884079 97.338623 106.60809 113.27246 118.20882 121.93646 125.87574 128.48192 133.52084 138.35902 140.96521 150.24557 154.98776 164.25723 171.22705 175.40851 180.2576 185.89433 191.53107 196.98563 200.62163 207.286 212.23326 215.95 219.88927 222.49545 227.53438 232.38347 234.98965 240.62639 247.28966 250.62239 255.86421 258.4704 261.07657 268.89078 274.5275 277.1337 281.98279 286.16425 294.65698 301.80569 306.65482 309.26099 316.83298 322.28754 327.13663 332.77338 338.4101">ZusammenfassungvonPartikelnzuPseudo-Partikeln,fallsdieseweitgenug</tspan><tspan
         id="tspan26"
         y="13.549"
         x="0 5.0301862 10.484736 16.121468 20.970562 23.576746 29.213478 34.455303 40.092033 45.728764 50.577862 57.938229 62.787327 68.424057 72.363335 75.69606 80.545158 84.272797 89.909531 97.481537 101.66299 104.26918 109.90591 115.54264 122.21683 127.85356 140.15248 147.30121 152.15031 157.78703 160.39322 165.84778 170.69687 178.05724 185.63252">voneinanderentferntsind,umwenigerKr</tspan><tspan
         id="tspan28"
         y="13.7"
         x="189.258">¨</tspan><tspan
         id="tspan30"
         y="13.549"
         x="189.364 194.60582 197.93855 201.87782 206.72693 210.36293 217.0273 222.26912 227.2164 230.94403 239.42586 245.36804 250.21715 253.94478 258.78296 263.63205 269.2688 274.90552 279.75461 289.035 293.77719 303.04663">afte-Paareberechnenzum</tspan><tspan
         id="tspan32"
         y="13.7"
         x="311.80301">¨</tspan><tspan
         id="tspan34"
         y="13.549"
         x="311.71201 317.34872 321.53018 325.71164 330.56073 336.19748">ussen.</tspan></text>
<g
       transform="translate(113.386,141.706)"
       id="g38"><g
         id="g40"><g
           id="g42"><g
             id="g44"><g
               id="g46"><g
                 id="g48"><g
                   clip-path="url(#clipPath54)"
                   id="g50"><g
                     transform="scale(0.20572)"
                     id="g56"><g
                       id="g58"><g
                         transform="translate(-50,-50)"
                         id="g60"><g
                           id="g62"><g
                             clip-path="url(#clipPath68)"
                             id="g64"><path
                               id="path82"
                               style="fill:url(#radialGradient80);stroke:none"
                               d="M 0,0 H 100 V 100 H 0 Z" /></g></g></g></g></g></g></g><g
                 id="g84"><g
                   id="g86" /></g></g><g
               id="g88"><g
                 id="g90"><g
                   clip-path="url(#clipPath96)"
                   id="g92"><g
                     transform="matrix(0.20572,0,0,0.20572,28.34679,21.26009)"
                     id="g98"><g
                       id="g100"><g
                         transform="translate(-50,-50)"
                         id="g102"><g
                           id="g104"><g
                             clip-path="url(#clipPath110)"
                             id="g106"><path
                               id="path124"
                               style="fill:url(#radialGradient122);stroke:none"
                               d="M 0,0 H 100 V 100 H 0 Z" /></g></g></g></g></g></g></g><g
                 transform="translate(28.346,21.26)"
                 id="g126"><g
                   id="g128" /><g
                   transform="translate(-28.346,-21.26)"
                   id="g130" /></g></g><g
               id="g132"><g
                 id="g134"><g
                   clip-path="url(#clipPath140)"
                   id="g136"><g
                     transform="matrix(0.20572,0,0,0.20572,7.08667,14.17337)"
                     id="g142"><g
                       id="g144"><g
                         transform="translate(-50,-50)"
                         id="g146"><g
                           id="g148"><g
                             clip-path="url(#clipPath154)"
                             id="g150"><path
                               id="path168"
                               style="fill:url(#radialGradient166);stroke:none"
                               d="M 0,0 H 100 V 100 H 0 Z" /></g></g></g></g></g></g></g><g
                 transform="translate(7.086,14.173)"
                 id="g170"><g
                   id="g172" /><g
                   transform="translate(-7.086,-14.173)"
                   id="g174" /></g></g><g
               id="g176"><g
                 id="g178"><g
                   clip-path="url(#clipPath184)"
                   id="g180"><g
                     transform="matrix(0.20572,0,0,0.20572,2.83484,28.34679)"
                     id="g186"><g
                       id="g188"><g
                         transform="translate(-50,-50)"
                         id="g190"><g
                           id="g192"><g
                             clip-path="url(#clipPath198)"
                             id="g194"><path
                               id="path212"
                               style="fill:url(#radialGradient210);stroke:none"
                               d="M 0,0 H 100 V 100 H 0 Z" /></g></g></g></g></g></g></g><g
                 transform="translate(2.835,28.346)"
                 id="g214"><g
                   id="g216" /><g
                   transform="translate(-2.835,-28.346)"
                   id="g218" /></g></g><g
               id="g220"><g
                 id="g222"><g
                   clip-path="url(#clipPath228)"
                   id="g224"><g
                     transform="matrix(0.20572,0,0,0.20572,21.26009,11.33855)"
                     id="g230"><g
                       id="g232"><g
                         transform="translate(-50,-50)"
                         id="g234"><g
                           id="g236"><g
                             clip-path="url(#clipPath242)"
                             id="g238"><path
                               id="path256"
                               style="fill:url(#radialGradient254);stroke:none"
                               d="M 0,0 H 100 V 100 H 0 Z" /></g></g></g></g></g></g></g><g
                 transform="translate(21.26,11.338)"
                 id="g258"><g
                   id="g260" /><g
                   transform="translate(-21.26,-11.338)"
                   id="g262" /></g></g><g
               id="g264"><g
                 id="g266"><g
                   clip-path="url(#clipPath272)"
                   id="g268"><g
                     transform="matrix(0.20572,0,0,0.20572,19.84265,-5.66927)"
                     id="g274"><g
                       id="g276"><g
                         transform="translate(-50,-50)"
                         id="g278"><g
                           id="g280"><g
                             clip-path="url(#clipPath286)"
                             id="g282"><path
                               id="path300"
                               style="fill:url(#radialGradient298);stroke:none"
                               d="M 0,0 H 100 V 100 H 0 Z" /></g></g></g></g></g></g></g><g
                 transform="translate(19.842,-5.669)"
                 id="g302"><g
                   id="g304" /><g
                   transform="translate(-19.842,5.669)"
                   id="g306" /></g></g><g
               id="g308"><g
                 id="g310"><g
                   clip-path="url(#clipPath316)"
                   id="g312"><g
                     transform="matrix(0.20572,0,0,0.20572,226.77448,14.17337)"
                     id="g318"><g
                       id="g320"><g
                         transform="translate(-50,-50)"
                         id="g322"><g
                           id="g324"><g
                             clip-path="url(#clipPath330)"
                             id="g326"><path
                               id="path344"
                               style="fill:url(#radialGradient342);stroke:none"
                               d="M 0,0 H 100 V 100 H 0 Z" /></g></g></g></g></g></g></g><g
                 transform="translate(226.771,14.173)"
                 id="g346"><g
                   id="g348" /><g
                   transform="translate(-226.771,-14.173)"
                   id="g350" /></g></g><g
               id="g352"><g
                 id="g354"><path
                   id="path356"
                   style="fill:none;stroke:#000000;stroke-width:0.3985;stroke-linecap:butt;stroke-linejoin:miter;stroke-miterlimit:10;stroke-dasharray:2.98883, 2.98883;stroke-dashoffset:0;stroke-opacity:1"
                   d="M 215.9845,13.49916 5.33089,0.3331" /><g
                   transform="matrix(0.99799,0.06236,-0.06236,0.99799,215.9845,13.49915)"
                   id="g358"><g
                     id="g360"><path
                       id="path362"
                       style="fill:#000000;fill-opacity:1;fill-rule:nonzero;stroke:#000000;stroke-width:0.3985;stroke-linecap:butt;stroke-linejoin:miter;stroke-miterlimit:10;stroke-dasharray:none;stroke-opacity:1"
                       d="M 4.49315,0 C 3.94136,0.11324 1.51591,0.75494 0,1.45326 V -1.45326 C 1.51591,-0.75494 3.94136,-0.11324 4.49315,0 Z" /></g></g></g></g><g
               id="g364"><g
                 id="g366"><path
                   id="path368"
                   style="fill:none;stroke:#000000;stroke-width:0.3985;stroke-linecap:butt;stroke-linejoin:miter;stroke-miterlimit:10;stroke-dasharray:2.98883, 2.98883;stroke-dashoffset:0;stroke-opacity:1"
                   d="M 215.96999,14.55908 33.68488,21.06953" /><g
                   transform="matrix(0.99933,-0.03568,0.03568,0.99933,215.96999,14.5591)"
                   id="g370"><g
                     id="g372"><path
                       id="path374"
                       style="fill:#000000;fill-opacity:1;fill-rule:nonzero;stroke:#000000;stroke-width:0.3985;stroke-linecap:butt;stroke-linejoin:miter;stroke-miterlimit:10;stroke-dasharray:none;stroke-opacity:1"
                       d="M 4.49315,0 C 3.94136,0.11324 1.51591,0.75494 0,1.45326 V -1.45326 C 1.51591,-0.75494 3.94136,-0.11324 4.49315,0 Z" /></g></g></g></g><g
               id="g376"><g
                 id="g378"><path
                   id="path380"
                   style="fill:none;stroke:#000000;stroke-width:0.3985;stroke-linecap:butt;stroke-linejoin:miter;stroke-miterlimit:10;stroke-dasharray:2.98883, 2.98883;stroke-dashoffset:0;stroke-opacity:1"
                   d="M 215.96272,14.17339 H 12.42834" /><g
                   transform="translate(215.96272,14.17339)"
                   id="g382"><g
                     id="g384"><path
                       id="path386"
                       style="fill:#000000;fill-opacity:1;fill-rule:nonzero;stroke:#000000;stroke-width:0.3985;stroke-linecap:butt;stroke-linejoin:miter;stroke-miterlimit:10;stroke-dasharray:none;stroke-opacity:1"
                       d="M 4.49315,0 C 3.94136,0.11324 1.51591,0.75494 0,1.45326 V -1.45326 C 1.51591,-0.75494 3.94136,-0.11324 4.49315,0 Z" /></g></g></g></g><g
               id="g388"><g
                 id="g390"><path
                   id="path392"
                   style="fill:none;stroke:#000000;stroke-width:0.3985;stroke-linecap:butt;stroke-linejoin:miter;stroke-miterlimit:10;stroke-dasharray:2.98883, 2.98883;stroke-dashoffset:0;stroke-opacity:1"
                   d="M 215.985,14.8562 8.1655,28.00946" /><g
                   transform="matrix(0.99794,-0.06316,0.06316,0.99794,215.985,14.85622)"
                   id="g394"><g
                     id="g396"><path
                       id="path398"
                       style="fill:#000000;fill-opacity:1;fill-rule:nonzero;stroke:#000000;stroke-width:0.3985;stroke-linecap:butt;stroke-linejoin:miter;stroke-miterlimit:10;stroke-dasharray:none;stroke-opacity:1"
                       d="M 4.49315,0 C 3.94136,0.11324 1.51591,0.75494 0,1.45326 V -1.45326 C 1.51591,-0.75494 3.94136,-0.11324 4.49315,0 Z" /></g></g></g></g><g
               id="g400"><g
                 id="g402"><path
                   id="path404"
                   style="fill:none;stroke:#000000;stroke-width:0.3985;stroke-linecap:butt;stroke-linejoin:miter;stroke-miterlimit:10;stroke-dasharray:2.98883, 2.98883;stroke-dashoffset:0;stroke-opacity:1"
                   d="M 215.96404,14.02428 26.6011,11.41222" /><g
                   transform="matrix(0.99988,0.0138,-0.0138,0.99988,215.96404,14.02426)"
                   id="g406"><g
                     id="g408"><path
                       id="path410"
                       style="fill:#000000;fill-opacity:1;fill-rule:nonzero;stroke:#000000;stroke-width:0.3985;stroke-linecap:butt;stroke-linejoin:miter;stroke-miterlimit:10;stroke-dasharray:none;stroke-opacity:1"
                       d="M 4.49315,0 C 3.94136,0.11324 1.51591,0.75494 0,1.45326 V -1.45326 C 1.51591,-0.75494 3.94136,-0.11324 4.49315,0 Z" /></g></g></g></g><g
               id="g412"><g
                 id="g414"><path
                   id="path416"
                   style="fill:none;stroke:#000000;stroke-width:0.3985;stroke-linecap:butt;stroke-linejoin:miter;stroke-miterlimit:10;stroke-dasharray:2.98883, 2.98883;stroke-dashoffset:0;stroke-opacity:1"
                   d="M 216.01271,13.14166 25.15962,-5.15953" /><g
                   transform="matrix(0.99538,0.09543,-0.09543,0.99538,216.01271,13.14165)"
                   id="g418"><g
                     id="g420"><path
                       id="path422"
                       style="fill:#000000;fill-opacity:1;fill-rule:nonzero;stroke:#000000;stroke-width:0.3985;stroke-linecap:butt;stroke-linejoin:miter;stroke-miterlimit:10;stroke-dasharray:none;stroke-opacity:1"
                       d="M 4.49315,0 C 3.94136,0.11324 1.51591,0.75494 0,1.45326 V -1.45326 C 1.51591,-0.75494 3.94136,-0.11324 4.49315,0 Z" /></g></g></g></g></g><g
             id="g424"><g
               id="g426"><g
                 id="g428"><g
                   id="g430"><g
                     clip-path="url(#clipPath436)"
                     id="g432"><g
                       transform="matrix(0.20572,0,0,0.20572,0,-70.86699)"
                       id="g438"><g
                         id="g440"><g
                           transform="translate(-50,-50)"
                           id="g442"><g
                             id="g444"><g
                               clip-path="url(#clipPath450)"
                               id="g446"><path
                                 id="path464"
                                 style="fill:url(#radialGradient462);stroke:none"
                                 d="M 0,0 H 100 V 100 H 0 Z" /></g></g></g></g></g></g></g></g><g
                 transform="translate(0,-70.866)"
                 id="g466"><g
                   id="g468" /><g
                   transform="translate(0,70.866)"
                   id="g470" /></g></g><g
               id="g472"><g
                 id="g474"><g
                   id="g476"><g
                     clip-path="url(#clipPath482)"
                     id="g478"><g
                       transform="matrix(0.20572,0,0,0.20572,28.34679,-49.6069)"
                       id="g484"><g
                         id="g486"><g
                           transform="translate(-50,-50)"
                           id="g488"><g
                             id="g490"><g
                               clip-path="url(#clipPath496)"
                               id="g492"><path
                                 id="path510"
                                 style="fill:url(#radialGradient508);stroke:none"
                                 d="M 0,0 H 100 V 100 H 0 Z" /></g></g></g></g></g></g></g></g><g
                 transform="translate(28.346,-49.606)"
                 id="g512"><g
                   id="g514" /><g
                   transform="translate(-28.346,49.606)"
                   id="g516" /></g></g><g
               id="g518"><g
                 id="g520"><g
                   id="g522"><g
                     clip-path="url(#clipPath528)"
                     id="g524"><g
                       transform="matrix(0.20572,0,0,0.20572,7.08667,-56.69362)"
                       id="g530"><g
                         id="g532"><g
                           transform="translate(-50,-50)"
                           id="g534"><g
                             id="g536"><g
                               clip-path="url(#clipPath542)"
                               id="g538"><path
                                 id="path556"
                                 style="fill:url(#radialGradient554);stroke:none"
                                 d="M 0,0 H 100 V 100 H 0 Z" /></g></g></g></g></g></g></g></g><g
                 transform="translate(7.087,-56.693)"
                 id="g558"><g
                   id="g560" /><g
                   transform="translate(-7.087,56.693)"
                   id="g562" /></g></g><g
               id="g564"><g
                 id="g566"><g
                   id="g568"><g
                     clip-path="url(#clipPath574)"
                     id="g570"><g
                       transform="matrix(0.20572,0,0,0.20572,2.83484,-42.5202)"
                       id="g576"><g
                         id="g578"><g
                           transform="translate(-50,-50)"
                           id="g580"><g
                             id="g582"><g
                               clip-path="url(#clipPath588)"
                               id="g584"><path
                                 id="path602"
                                 style="fill:url(#radialGradient600);stroke:none"
                                 d="M 0,0 H 100 V 100 H 0 Z" /></g></g></g></g></g></g></g></g><g
                 transform="translate(2.835,-42.52)"
                 id="g604"><g
                   id="g606" /><g
                   transform="translate(-2.835,42.52)"
                   id="g608" /></g></g><g
               id="g610"><g
                 id="g612"><g
                   id="g614"><g
                     clip-path="url(#clipPath620)"
                     id="g616"><g
                       transform="matrix(0.20572,0,0,0.20572,21.26009,-59.52844)"
                       id="g622"><g
                         id="g624"><g
                           transform="translate(-50,-50)"
                           id="g626"><g
                             id="g628"><g
                               clip-path="url(#clipPath634)"
                               id="g630"><path
                                 id="path648"
                                 style="fill:url(#radialGradient646);stroke:none"
                                 d="M 0,0 H 100 V 100 H 0 Z" /></g></g></g></g></g></g></g></g><g
                 transform="translate(21.26,-59.528)"
                 id="g650"><g
                   id="g652" /><g
                   transform="translate(-21.26,59.528)"
                   id="g654" /></g></g><g
               id="g656"><g
                 id="g658"><g
                   id="g660"><g
                     clip-path="url(#clipPath666)"
                     id="g662"><g
                       transform="matrix(0.20572,0,0,0.20572,19.84265,-76.53627)"
                       id="g668"><g
                         id="g670"><g
                           transform="translate(-50,-50)"
                           id="g672"><g
                             id="g674"><g
                               clip-path="url(#clipPath680)"
                               id="g676"><path
                                 id="path694"
                                 style="fill:url(#radialGradient692);stroke:none"
                                 d="M 0,0 H 100 V 100 H 0 Z" /></g></g></g></g></g></g></g></g><g
                 transform="translate(19.842,-76.535)"
                 id="g696"><g
                   id="g698" /><g
                   transform="translate(-19.842,76.535)"
                   id="g700" /></g></g><g
               id="g702"><g
                 id="g704"><g
                   clip-path="url(#clipPath710)"
                   id="g706"><g
                     transform="matrix(0.32915,0,0,0.32915,10.86531,-59.29317)"
                     id="g712"><g
                       id="g714"><g
                         transform="translate(-50,-50)"
                         id="g716"><g
                           id="g718"><g
                             clip-path="url(#clipPath724)"
                             id="g720"><path
                               id="path738"
                               style="fill:url(#radialGradient736);stroke:none"
                               d="M 0,0 H 100 V 100 H 0 Z" /></g></g></g></g></g></g></g><g
                 transform="matrix(1.6,0,0,1.6,10.865,-59.292)"
                 id="g740"><g
                   id="g742" /><g
                   transform="translate(-10.865,59.292)"
                   id="g744" /></g></g><g
               id="g746"><g
                 id="g748"><g
                   clip-path="url(#clipPath754)"
                   id="g750"><g
                     transform="matrix(0.20572,0,0,0.20572,226.77448,-56.69362)"
                     id="g756"><g
                       id="g758"><g
                         transform="translate(-50,-50)"
                         id="g760"><g
                           id="g762"><g
                             clip-path="url(#clipPath768)"
                             id="g764"><path
                               id="path782"
                               style="fill:url(#radialGradient780);stroke:none"
                               d="M 0,0 H 100 V 100 H 0 Z" /></g></g></g></g></g></g></g><g
                 transform="translate(226.772,-56.693)"
                 id="g784"><g
                   id="g786" /><g
                   transform="translate(-226.772,56.693)"
                   id="g788" /></g></g><g
               id="g790"><g
                 id="g792"><path
                   id="path794"
                   style="fill:none;stroke:#000000;stroke-width:0.3985;stroke-linecap:butt;stroke-linejoin:miter;stroke-miterlimit:10;stroke-dasharray:2.98883, 2.98883;stroke-dashoffset:0;stroke-opacity:1"
                   d="M 215.96388,-56.82378 19.41107,-59.19028" /><g
                   transform="matrix(0.9999,0.01204,-0.01204,0.9999,215.96387,-56.82378)"
                   id="g796"><g
                     id="g798"><path
                       id="path800"
                       style="fill:#000000;fill-opacity:1;fill-rule:nonzero;stroke:#000000;stroke-width:0.3985;stroke-linecap:butt;stroke-linejoin:miter;stroke-miterlimit:10;stroke-dasharray:none;stroke-opacity:1"
                       d="M 4.49315,0 C 3.94136,0.11324 1.51591,0.75494 0,1.45326 V -1.45326 C 1.51591,-0.75494 3.94136,-0.11324 4.49315,0 Z" /></g></g></g></g></g><g
             id="g802"><g
               id="g804"><path
                 id="path806"
                 style="fill:none;stroke:#000000;stroke-width:0.3985;stroke-linecap:butt;stroke-linejoin:miter;stroke-miterlimit:10;stroke-dasharray:0.3985, 1.99255;stroke-dashoffset:0;stroke-opacity:1"
                 d="M -25.51193,13.61499 C -49.44554,-0.20303 -49.44554,-43.43398 -30.2491,-54.51706" /><g
                 transform="matrix(0.86601,-0.49998,0.49998,0.86601,-30.24911,-54.51706)"
                 id="g808"><g
                   id="g810"><path
                     id="path812"
                     style="fill:#000000;fill-opacity:1;fill-rule:nonzero;stroke:#000000;stroke-width:0.3985;stroke-linecap:butt;stroke-linejoin:miter;stroke-miterlimit:10;stroke-dasharray:none;stroke-opacity:1"
                     d="M 4.49315,0 C 3.94136,0.11324 1.51591,0.75494 0,1.45326 V -1.45326 C 1.51591,-0.75494 3.94136,-0.11324 4.49315,0 Z" /></g></g></g><g
               id="g814"><g
                 transform="rotate(90,-0.7445,-48.2865)"
                 id="g816"><g
                   id="g818"><g
                     transform="translate(-64.355,-94.164)"
                     id="g820"><text
                       id="text824"
                       style="font-variant:normal;font-weight:normal;font-size:7.97009993px;font-family:LMSans8;-inkscape-font-specification:LMSans8-Regular;writing-mode:lr-tb;fill:#000000;fill-opacity:1;fill-rule:nonzero;stroke:none"
                       transform="matrix(1,0,0,-1,64.355,94.164)"><tspan
                         id="tspan822"
                         y="0"
                         x="0 5.646019 10.018415 14.15171 17.043262 21.045847 24.948008 26.968428 33.692802 37.760738 40.818867 42.839287 47.073006">Approximation</tspan></text>
<g
                       transform="translate(64.355,94.164)"
                       id="g826" /></g></g><g
                   transform="translate(49.031,47.542)"
                   id="g828" /></g></g></g></g></g><g
         transform="translate(-113.386,-141.706)"
         id="g830"><text
           id="text834"
           style="font-variant:normal;font-weight:normal;font-size:7.97009993px;font-family:LMSans8;-inkscape-font-specification:LMSans8-Regular;writing-mode:lr-tb;fill:#000000;fill-opacity:1;fill-rule:nonzero;stroke:none"
           transform="matrix(1,0,0,-1,28.347,28.536)"><tspan
             id="tspan832"
             y="0"
             x="0 4.7047501 6.7251706 10.488651 14.861049 18.624529">Siehe:</tspan></text>
<text
           id="text840"
           style="font-variant:normal;font-weight:normal;font-size:7.97009993px;font-family:LMMono8;-inkscape-font-specification:LMMono8-Regular;writing-mode:lr-tb;fill:#000000;fill-opacity:1;fill-rule:nonzero;stroke:none"
           transform="matrix(1,0,0,-1,52.147,28.536)"><tspan
             id="tspan836"
             y="0"
             x="0 4.233717 8.4674339 12.701151 21.166992 25.400709 29.634426 33.868141 38.10186 42.335579 50.801418 55.035133 59.268852 67.734695 71.968407 76.202126 80.435844 88.90168 93.135399 97.369118 101.60284 110.06867 118.53452 122.76823 127.00195 131.23567 135.46939 139.70309 143.93681 148.17053 152.40425 156.63797 160.87169 165.10541 173.57124 177.80496 182.03868 190.50452 194.73824 198.97195 207.43779 211.67151 220.13734 224.37106 228.60478 232.8385 237.07222 241.30594 245.53966 249.77338 254.00708 258.24081 262.47452 266.70825 270.94196 275.17566 279.40939 283.6431 287.87683 296.34265 300.57639 304.81009 309.04382 313.27753 317.51126 321.74496 325.9707 330.20444 338.67825 342.91196 347.14566 351.37781 355.60355 359.83566">JoshBarnesandPietHut:AhierarchicalO(NlogN)force-calculationalgorithm(1986)</tspan><tspan
             id="tspan838"
             y="9.3149996"
             x="-23.799999 -19.566282 -15.332565 -11.098848 -6.8651314 1.6007087 5.8344259 10.068143 14.30186 18.535578 22.769295 27.003012 31.236729 35.470448 39.704163 43.929909 48.163628 52.397343 56.631062 60.864777 65.098495 69.332214 73.565933 77.799644 82.033363 86.267082 90.500801 94.734512 98.968231 103.20195 107.43567 111.66938 115.9031 120.13682 124.37054 128.60266 132.8284 137.06212">(DOI:https://doi.org/10.1038/324446a0)</tspan></text>
</g></g></g></svg>