<?xml version="1.0" encoding="utf-8" standalone="no"?>
<!DOCTYPE svg PUBLIC "-//W3C//DTD SVG 1.1//EN"
  "http://www.w3.org/Graphics/SVG/1.1/DTD/svg11.dtd">
<svg xmlns:xlink="http://www.w3.org/1999/xlink" width="409.798125pt" height="325.986375pt" viewBox="0 0 409.798125 325.986375" xmlns="http://www.w3.org/2000/svg" version="1.1">
 <metadata>
  <rdf:RDF xmlns:dc="http://purl.org/dc/elements/1.1/" xmlns:cc="http://creativecommons.org/ns#" xmlns:rdf="http://www.w3.org/1999/02/22-rdf-syntax-ns#">
   <cc:Work>
    <dc:type rdf:resource="http://purl.org/dc/dcmitype/StillImage"/>
    <dc:date>2024-09-05T20:17:51.448354</dc:date>
    <dc:format>image/svg+xml</dc:format>
    <dc:creator>
     <cc:Agent>
      <dc:title>Matplotlib v3.9.1, https://matplotlib.org/</dc:title>
     </cc:Agent>
    </dc:creator>
   </cc:Work>
  </rdf:RDF>
 </metadata>
 <defs>
  <style type="text/css">*{stroke-linejoin: round; stroke-linecap: butt}</style>
 </defs>
 <g id="figure_1">
  <g id="patch_1">
   <path d="M 0 325.986375 
L 409.798125 325.986375 
L 409.798125 0 
L 0 0 
z
" style="fill: #ffffff"/>
  </g>
  <g id="axes_1">
   <g id="patch_2">
    <path d="M 45.478125 288.430125 
L 402.598125 288.430125 
L 402.598125 22.318125 
L 45.478125 22.318125 
z
" style="fill: #ffffff"/>
   </g>
   <g id="matplotlib.axis_1">
    <g id="xtick_1">
     <g id="line2d_1">
      <defs>
       <path id="m510dc44b9c" d="M 0 0 
L 0 3.5 
" style="stroke: #000000; stroke-width: 0.8"/>
      </defs>
      <g>
       <use xlink:href="#m510dc44b9c" x="61.710852" y="288.430125" style="stroke: #000000; stroke-width: 0.8"/>
      </g>
     </g>
     <g id="text_1">
      <!-- 1 -->
      <g transform="translate(58.529602 303.028562) scale(0.1 -0.1)">
       <defs>
        <path id="DejaVuSans-31" d="M 794 531 
L 1825 531 
L 1825 4091 
L 703 3866 
L 703 4441 
L 1819 4666 
L 2450 4666 
L 2450 531 
L 3481 531 
L 3481 0 
L 794 0 
L 794 531 
z
" transform="scale(0.015625)"/>
       </defs>
       <use xlink:href="#DejaVuSans-31"/>
      </g>
     </g>
    </g>
    <g id="xtick_2">
     <g id="line2d_2">
      <g>
       <use xlink:href="#m510dc44b9c" x="108.090073" y="288.430125" style="stroke: #000000; stroke-width: 0.8"/>
      </g>
     </g>
     <g id="text_2">
      <!-- 2 -->
      <g transform="translate(104.908823 303.028562) scale(0.1 -0.1)">
       <defs>
        <path id="DejaVuSans-32" d="M 1228 531 
L 3431 531 
L 3431 0 
L 469 0 
L 469 531 
Q 828 903 1448 1529 
Q 2069 2156 2228 2338 
Q 2531 2678 2651 2914 
Q 2772 3150 2772 3378 
Q 2772 3750 2511 3984 
Q 2250 4219 1831 4219 
Q 1534 4219 1204 4116 
Q 875 4013 500 3803 
L 500 4441 
Q 881 4594 1212 4672 
Q 1544 4750 1819 4750 
Q 2544 4750 2975 4387 
Q 3406 4025 3406 3419 
Q 3406 3131 3298 2873 
Q 3191 2616 2906 2266 
Q 2828 2175 2409 1742 
Q 1991 1309 1228 531 
z
" transform="scale(0.015625)"/>
       </defs>
       <use xlink:href="#DejaVuSans-32"/>
      </g>
     </g>
    </g>
    <g id="xtick_3">
     <g id="line2d_3">
      <g>
       <use xlink:href="#m510dc44b9c" x="154.469294" y="288.430125" style="stroke: #000000; stroke-width: 0.8"/>
      </g>
     </g>
     <g id="text_3">
      <!-- 4 -->
      <g transform="translate(151.288044 303.028562) scale(0.1 -0.1)">
       <defs>
        <path id="DejaVuSans-34" d="M 2419 4116 
L 825 1625 
L 2419 1625 
L 2419 4116 
z
M 2253 4666 
L 3047 4666 
L 3047 1625 
L 3713 1625 
L 3713 1100 
L 3047 1100 
L 3047 0 
L 2419 0 
L 2419 1100 
L 313 1100 
L 313 1709 
L 2253 4666 
z
" transform="scale(0.015625)"/>
       </defs>
       <use xlink:href="#DejaVuSans-34"/>
      </g>
     </g>
    </g>
    <g id="xtick_4">
     <g id="line2d_4">
      <g>
       <use xlink:href="#m510dc44b9c" x="200.848515" y="288.430125" style="stroke: #000000; stroke-width: 0.8"/>
      </g>
     </g>
     <g id="text_4">
      <!-- 8 -->
      <g transform="translate(197.667265 303.028562) scale(0.1 -0.1)">
       <defs>
        <path id="DejaVuSans-38" d="M 2034 2216 
Q 1584 2216 1326 1975 
Q 1069 1734 1069 1313 
Q 1069 891 1326 650 
Q 1584 409 2034 409 
Q 2484 409 2743 651 
Q 3003 894 3003 1313 
Q 3003 1734 2745 1975 
Q 2488 2216 2034 2216 
z
M 1403 2484 
Q 997 2584 770 2862 
Q 544 3141 544 3541 
Q 544 4100 942 4425 
Q 1341 4750 2034 4750 
Q 2731 4750 3128 4425 
Q 3525 4100 3525 3541 
Q 3525 3141 3298 2862 
Q 3072 2584 2669 2484 
Q 3125 2378 3379 2068 
Q 3634 1759 3634 1313 
Q 3634 634 3220 271 
Q 2806 -91 2034 -91 
Q 1263 -91 848 271 
Q 434 634 434 1313 
Q 434 1759 690 2068 
Q 947 2378 1403 2484 
z
M 1172 3481 
Q 1172 3119 1398 2916 
Q 1625 2713 2034 2713 
Q 2441 2713 2670 2916 
Q 2900 3119 2900 3481 
Q 2900 3844 2670 4047 
Q 2441 4250 2034 4250 
Q 1625 4250 1398 4047 
Q 1172 3844 1172 3481 
z
" transform="scale(0.015625)"/>
       </defs>
       <use xlink:href="#DejaVuSans-38"/>
      </g>
     </g>
    </g>
    <g id="xtick_5">
     <g id="line2d_5">
      <g>
       <use xlink:href="#m510dc44b9c" x="247.227735" y="288.430125" style="stroke: #000000; stroke-width: 0.8"/>
      </g>
     </g>
     <g id="text_5">
      <!-- 16 -->
      <g transform="translate(240.865235 303.028562) scale(0.1 -0.1)">
       <defs>
        <path id="DejaVuSans-36" d="M 2113 2584 
Q 1688 2584 1439 2293 
Q 1191 2003 1191 1497 
Q 1191 994 1439 701 
Q 1688 409 2113 409 
Q 2538 409 2786 701 
Q 3034 994 3034 1497 
Q 3034 2003 2786 2293 
Q 2538 2584 2113 2584 
z
M 3366 4563 
L 3366 3988 
Q 3128 4100 2886 4159 
Q 2644 4219 2406 4219 
Q 1781 4219 1451 3797 
Q 1122 3375 1075 2522 
Q 1259 2794 1537 2939 
Q 1816 3084 2150 3084 
Q 2853 3084 3261 2657 
Q 3669 2231 3669 1497 
Q 3669 778 3244 343 
Q 2819 -91 2113 -91 
Q 1303 -91 875 529 
Q 447 1150 447 2328 
Q 447 3434 972 4092 
Q 1497 4750 2381 4750 
Q 2619 4750 2861 4703 
Q 3103 4656 3366 4563 
z
" transform="scale(0.015625)"/>
       </defs>
       <use xlink:href="#DejaVuSans-31"/>
       <use xlink:href="#DejaVuSans-36" x="63.623047"/>
      </g>
     </g>
    </g>
    <g id="xtick_6">
     <g id="line2d_6">
      <g>
       <use xlink:href="#m510dc44b9c" x="293.606956" y="288.430125" style="stroke: #000000; stroke-width: 0.8"/>
      </g>
     </g>
     <g id="text_6">
      <!-- 32 -->
      <g transform="translate(287.244456 303.028562) scale(0.1 -0.1)">
       <defs>
        <path id="DejaVuSans-33" d="M 2597 2516 
Q 3050 2419 3304 2112 
Q 3559 1806 3559 1356 
Q 3559 666 3084 287 
Q 2609 -91 1734 -91 
Q 1441 -91 1130 -33 
Q 819 25 488 141 
L 488 750 
Q 750 597 1062 519 
Q 1375 441 1716 441 
Q 2309 441 2620 675 
Q 2931 909 2931 1356 
Q 2931 1769 2642 2001 
Q 2353 2234 1838 2234 
L 1294 2234 
L 1294 2753 
L 1863 2753 
Q 2328 2753 2575 2939 
Q 2822 3125 2822 3475 
Q 2822 3834 2567 4026 
Q 2313 4219 1838 4219 
Q 1578 4219 1281 4162 
Q 984 4106 628 3988 
L 628 4550 
Q 988 4650 1302 4700 
Q 1616 4750 1894 4750 
Q 2613 4750 3031 4423 
Q 3450 4097 3450 3541 
Q 3450 3153 3228 2886 
Q 3006 2619 2597 2516 
z
" transform="scale(0.015625)"/>
       </defs>
       <use xlink:href="#DejaVuSans-33"/>
       <use xlink:href="#DejaVuSans-32" x="63.623047"/>
      </g>
     </g>
    </g>
    <g id="xtick_7">
     <g id="line2d_7">
      <g>
       <use xlink:href="#m510dc44b9c" x="339.986177" y="288.430125" style="stroke: #000000; stroke-width: 0.8"/>
      </g>
     </g>
     <g id="text_7">
      <!-- 64 -->
      <g transform="translate(333.623677 303.028562) scale(0.1 -0.1)">
       <use xlink:href="#DejaVuSans-36"/>
       <use xlink:href="#DejaVuSans-34" x="63.623047"/>
      </g>
     </g>
    </g>
    <g id="xtick_8">
     <g id="line2d_8">
      <g>
       <use xlink:href="#m510dc44b9c" x="386.365398" y="288.430125" style="stroke: #000000; stroke-width: 0.8"/>
      </g>
     </g>
     <g id="text_8">
      <!-- 128 -->
      <g transform="translate(376.821648 303.028562) scale(0.1 -0.1)">
       <use xlink:href="#DejaVuSans-31"/>
       <use xlink:href="#DejaVuSans-32" x="63.623047"/>
       <use xlink:href="#DejaVuSans-38" x="127.246094"/>
      </g>
     </g>
    </g>
    <g id="text_9">
     <!-- Threads (log scale) -->
     <g transform="translate(176.367031 316.706687) scale(0.1 -0.1)">
      <defs>
       <path id="DejaVuSans-54" d="M -19 4666 
L 3928 4666 
L 3928 4134 
L 2272 4134 
L 2272 0 
L 1638 0 
L 1638 4134 
L -19 4134 
L -19 4666 
z
" transform="scale(0.015625)"/>
       <path id="DejaVuSans-68" d="M 3513 2113 
L 3513 0 
L 2938 0 
L 2938 2094 
Q 2938 2591 2744 2837 
Q 2550 3084 2163 3084 
Q 1697 3084 1428 2787 
Q 1159 2491 1159 1978 
L 1159 0 
L 581 0 
L 581 4863 
L 1159 4863 
L 1159 2956 
Q 1366 3272 1645 3428 
Q 1925 3584 2291 3584 
Q 2894 3584 3203 3211 
Q 3513 2838 3513 2113 
z
" transform="scale(0.015625)"/>
       <path id="DejaVuSans-72" d="M 2631 2963 
Q 2534 3019 2420 3045 
Q 2306 3072 2169 3072 
Q 1681 3072 1420 2755 
Q 1159 2438 1159 1844 
L 1159 0 
L 581 0 
L 581 3500 
L 1159 3500 
L 1159 2956 
Q 1341 3275 1631 3429 
Q 1922 3584 2338 3584 
Q 2397 3584 2469 3576 
Q 2541 3569 2628 3553 
L 2631 2963 
z
" transform="scale(0.015625)"/>
       <path id="DejaVuSans-65" d="M 3597 1894 
L 3597 1613 
L 953 1613 
Q 991 1019 1311 708 
Q 1631 397 2203 397 
Q 2534 397 2845 478 
Q 3156 559 3463 722 
L 3463 178 
Q 3153 47 2828 -22 
Q 2503 -91 2169 -91 
Q 1331 -91 842 396 
Q 353 884 353 1716 
Q 353 2575 817 3079 
Q 1281 3584 2069 3584 
Q 2775 3584 3186 3129 
Q 3597 2675 3597 1894 
z
M 3022 2063 
Q 3016 2534 2758 2815 
Q 2500 3097 2075 3097 
Q 1594 3097 1305 2825 
Q 1016 2553 972 2059 
L 3022 2063 
z
" transform="scale(0.015625)"/>
       <path id="DejaVuSans-61" d="M 2194 1759 
Q 1497 1759 1228 1600 
Q 959 1441 959 1056 
Q 959 750 1161 570 
Q 1363 391 1709 391 
Q 2188 391 2477 730 
Q 2766 1069 2766 1631 
L 2766 1759 
L 2194 1759 
z
M 3341 1997 
L 3341 0 
L 2766 0 
L 2766 531 
Q 2569 213 2275 61 
Q 1981 -91 1556 -91 
Q 1019 -91 701 211 
Q 384 513 384 1019 
Q 384 1609 779 1909 
Q 1175 2209 1959 2209 
L 2766 2209 
L 2766 2266 
Q 2766 2663 2505 2880 
Q 2244 3097 1772 3097 
Q 1472 3097 1187 3025 
Q 903 2953 641 2809 
L 641 3341 
Q 956 3463 1253 3523 
Q 1550 3584 1831 3584 
Q 2591 3584 2966 3190 
Q 3341 2797 3341 1997 
z
" transform="scale(0.015625)"/>
       <path id="DejaVuSans-64" d="M 2906 2969 
L 2906 4863 
L 3481 4863 
L 3481 0 
L 2906 0 
L 2906 525 
Q 2725 213 2448 61 
Q 2172 -91 1784 -91 
Q 1150 -91 751 415 
Q 353 922 353 1747 
Q 353 2572 751 3078 
Q 1150 3584 1784 3584 
Q 2172 3584 2448 3432 
Q 2725 3281 2906 2969 
z
M 947 1747 
Q 947 1113 1208 752 
Q 1469 391 1925 391 
Q 2381 391 2643 752 
Q 2906 1113 2906 1747 
Q 2906 2381 2643 2742 
Q 2381 3103 1925 3103 
Q 1469 3103 1208 2742 
Q 947 2381 947 1747 
z
" transform="scale(0.015625)"/>
       <path id="DejaVuSans-73" d="M 2834 3397 
L 2834 2853 
Q 2591 2978 2328 3040 
Q 2066 3103 1784 3103 
Q 1356 3103 1142 2972 
Q 928 2841 928 2578 
Q 928 2378 1081 2264 
Q 1234 2150 1697 2047 
L 1894 2003 
Q 2506 1872 2764 1633 
Q 3022 1394 3022 966 
Q 3022 478 2636 193 
Q 2250 -91 1575 -91 
Q 1294 -91 989 -36 
Q 684 19 347 128 
L 347 722 
Q 666 556 975 473 
Q 1284 391 1588 391 
Q 1994 391 2212 530 
Q 2431 669 2431 922 
Q 2431 1156 2273 1281 
Q 2116 1406 1581 1522 
L 1381 1569 
Q 847 1681 609 1914 
Q 372 2147 372 2553 
Q 372 3047 722 3315 
Q 1072 3584 1716 3584 
Q 2034 3584 2315 3537 
Q 2597 3491 2834 3397 
z
" transform="scale(0.015625)"/>
       <path id="DejaVuSans-20" transform="scale(0.015625)"/>
       <path id="DejaVuSans-28" d="M 1984 4856 
Q 1566 4138 1362 3434 
Q 1159 2731 1159 2009 
Q 1159 1288 1364 580 
Q 1569 -128 1984 -844 
L 1484 -844 
Q 1016 -109 783 600 
Q 550 1309 550 2009 
Q 550 2706 781 3412 
Q 1013 4119 1484 4856 
L 1984 4856 
z
" transform="scale(0.015625)"/>
       <path id="DejaVuSans-6c" d="M 603 4863 
L 1178 4863 
L 1178 0 
L 603 0 
L 603 4863 
z
" transform="scale(0.015625)"/>
       <path id="DejaVuSans-6f" d="M 1959 3097 
Q 1497 3097 1228 2736 
Q 959 2375 959 1747 
Q 959 1119 1226 758 
Q 1494 397 1959 397 
Q 2419 397 2687 759 
Q 2956 1122 2956 1747 
Q 2956 2369 2687 2733 
Q 2419 3097 1959 3097 
z
M 1959 3584 
Q 2709 3584 3137 3096 
Q 3566 2609 3566 1747 
Q 3566 888 3137 398 
Q 2709 -91 1959 -91 
Q 1206 -91 779 398 
Q 353 888 353 1747 
Q 353 2609 779 3096 
Q 1206 3584 1959 3584 
z
" transform="scale(0.015625)"/>
       <path id="DejaVuSans-67" d="M 2906 1791 
Q 2906 2416 2648 2759 
Q 2391 3103 1925 3103 
Q 1463 3103 1205 2759 
Q 947 2416 947 1791 
Q 947 1169 1205 825 
Q 1463 481 1925 481 
Q 2391 481 2648 825 
Q 2906 1169 2906 1791 
z
M 3481 434 
Q 3481 -459 3084 -895 
Q 2688 -1331 1869 -1331 
Q 1566 -1331 1297 -1286 
Q 1028 -1241 775 -1147 
L 775 -588 
Q 1028 -725 1275 -790 
Q 1522 -856 1778 -856 
Q 2344 -856 2625 -561 
Q 2906 -266 2906 331 
L 2906 616 
Q 2728 306 2450 153 
Q 2172 0 1784 0 
Q 1141 0 747 490 
Q 353 981 353 1791 
Q 353 2603 747 3093 
Q 1141 3584 1784 3584 
Q 2172 3584 2450 3431 
Q 2728 3278 2906 2969 
L 2906 3500 
L 3481 3500 
L 3481 434 
z
" transform="scale(0.015625)"/>
       <path id="DejaVuSans-63" d="M 3122 3366 
L 3122 2828 
Q 2878 2963 2633 3030 
Q 2388 3097 2138 3097 
Q 1578 3097 1268 2742 
Q 959 2388 959 1747 
Q 959 1106 1268 751 
Q 1578 397 2138 397 
Q 2388 397 2633 464 
Q 2878 531 3122 666 
L 3122 134 
Q 2881 22 2623 -34 
Q 2366 -91 2075 -91 
Q 1284 -91 818 406 
Q 353 903 353 1747 
Q 353 2603 823 3093 
Q 1294 3584 2113 3584 
Q 2378 3584 2631 3529 
Q 2884 3475 3122 3366 
z
" transform="scale(0.015625)"/>
       <path id="DejaVuSans-29" d="M 513 4856 
L 1013 4856 
Q 1481 4119 1714 3412 
Q 1947 2706 1947 2009 
Q 1947 1309 1714 600 
Q 1481 -109 1013 -844 
L 513 -844 
Q 928 -128 1133 580 
Q 1338 1288 1338 2009 
Q 1338 2731 1133 3434 
Q 928 4138 513 4856 
z
" transform="scale(0.015625)"/>
      </defs>
      <use xlink:href="#DejaVuSans-54"/>
      <use xlink:href="#DejaVuSans-68" x="61.083984"/>
      <use xlink:href="#DejaVuSans-72" x="124.462891"/>
      <use xlink:href="#DejaVuSans-65" x="163.326172"/>
      <use xlink:href="#DejaVuSans-61" x="224.849609"/>
      <use xlink:href="#DejaVuSans-64" x="286.128906"/>
      <use xlink:href="#DejaVuSans-73" x="349.605469"/>
      <use xlink:href="#DejaVuSans-20" x="401.705078"/>
      <use xlink:href="#DejaVuSans-28" x="433.492188"/>
      <use xlink:href="#DejaVuSans-6c" x="472.505859"/>
      <use xlink:href="#DejaVuSans-6f" x="500.289062"/>
      <use xlink:href="#DejaVuSans-67" x="561.470703"/>
      <use xlink:href="#DejaVuSans-20" x="624.947266"/>
      <use xlink:href="#DejaVuSans-73" x="656.734375"/>
      <use xlink:href="#DejaVuSans-63" x="708.833984"/>
      <use xlink:href="#DejaVuSans-61" x="763.814453"/>
      <use xlink:href="#DejaVuSans-6c" x="825.09375"/>
      <use xlink:href="#DejaVuSans-65" x="852.876953"/>
      <use xlink:href="#DejaVuSans-29" x="914.400391"/>
     </g>
    </g>
   </g>
   <g id="matplotlib.axis_2">
    <g id="ytick_1">
     <g id="line2d_9">
      <defs>
       <path id="mf2094c36a9" d="M 0 0 
L -3.5 0 
" style="stroke: #000000; stroke-width: 0.8"/>
      </defs>
      <g>
       <use xlink:href="#mf2094c36a9" x="45.478125" y="202.38742" style="stroke: #000000; stroke-width: 0.8"/>
      </g>
     </g>
     <g id="text_10">
      <!-- $\mathdefault{10^{2}}$ -->
      <g transform="translate(20.878125 206.186639) scale(0.1 -0.1)">
       <defs>
        <path id="DejaVuSans-30" d="M 2034 4250 
Q 1547 4250 1301 3770 
Q 1056 3291 1056 2328 
Q 1056 1369 1301 889 
Q 1547 409 2034 409 
Q 2525 409 2770 889 
Q 3016 1369 3016 2328 
Q 3016 3291 2770 3770 
Q 2525 4250 2034 4250 
z
M 2034 4750 
Q 2819 4750 3233 4129 
Q 3647 3509 3647 2328 
Q 3647 1150 3233 529 
Q 2819 -91 2034 -91 
Q 1250 -91 836 529 
Q 422 1150 422 2328 
Q 422 3509 836 4129 
Q 1250 4750 2034 4750 
z
" transform="scale(0.015625)"/>
       </defs>
       <use xlink:href="#DejaVuSans-31" transform="translate(0 0.765625)"/>
       <use xlink:href="#DejaVuSans-30" transform="translate(63.623047 0.765625)"/>
       <use xlink:href="#DejaVuSans-32" transform="translate(128.203125 39.046875) scale(0.7)"/>
      </g>
     </g>
    </g>
    <g id="ytick_2">
     <g id="line2d_10">
      <g>
       <use xlink:href="#mf2094c36a9" x="45.478125" y="96.028156" style="stroke: #000000; stroke-width: 0.8"/>
      </g>
     </g>
     <g id="text_11">
      <!-- $\mathdefault{10^{3}}$ -->
      <g transform="translate(20.878125 99.827374) scale(0.1 -0.1)">
       <use xlink:href="#DejaVuSans-31" transform="translate(0 0.765625)"/>
       <use xlink:href="#DejaVuSans-30" transform="translate(63.623047 0.765625)"/>
       <use xlink:href="#DejaVuSans-33" transform="translate(128.203125 39.046875) scale(0.7)"/>
      </g>
     </g>
    </g>
    <g id="ytick_3">
     <g id="line2d_11">
      <defs>
       <path id="md217e9de7a" d="M 0 0 
L -2 0 
" style="stroke: #000000; stroke-width: 0.6"/>
      </defs>
      <g>
       <use xlink:href="#md217e9de7a" x="45.478125" y="276.729356" style="stroke: #000000; stroke-width: 0.6"/>
      </g>
     </g>
    </g>
    <g id="ytick_4">
     <g id="line2d_12">
      <g>
       <use xlink:href="#md217e9de7a" x="45.478125" y="258.000419" style="stroke: #000000; stroke-width: 0.6"/>
      </g>
     </g>
    </g>
    <g id="ytick_5">
     <g id="line2d_13">
      <g>
       <use xlink:href="#md217e9de7a" x="45.478125" y="244.712027" style="stroke: #000000; stroke-width: 0.6"/>
      </g>
     </g>
    </g>
    <g id="ytick_6">
     <g id="line2d_14">
      <g>
       <use xlink:href="#md217e9de7a" x="45.478125" y="234.40475" style="stroke: #000000; stroke-width: 0.6"/>
      </g>
     </g>
    </g>
    <g id="ytick_7">
     <g id="line2d_15">
      <g>
       <use xlink:href="#md217e9de7a" x="45.478125" y="225.98309" style="stroke: #000000; stroke-width: 0.6"/>
      </g>
     </g>
    </g>
    <g id="ytick_8">
     <g id="line2d_16">
      <g>
       <use xlink:href="#md217e9de7a" x="45.478125" y="218.862679" style="stroke: #000000; stroke-width: 0.6"/>
      </g>
     </g>
    </g>
    <g id="ytick_9">
     <g id="line2d_17">
      <g>
       <use xlink:href="#md217e9de7a" x="45.478125" y="212.694698" style="stroke: #000000; stroke-width: 0.6"/>
      </g>
     </g>
    </g>
    <g id="ytick_10">
     <g id="line2d_18">
      <g>
       <use xlink:href="#md217e9de7a" x="45.478125" y="207.254154" style="stroke: #000000; stroke-width: 0.6"/>
      </g>
     </g>
    </g>
    <g id="ytick_11">
     <g id="line2d_19">
      <g>
       <use xlink:href="#md217e9de7a" x="45.478125" y="170.370091" style="stroke: #000000; stroke-width: 0.6"/>
      </g>
     </g>
    </g>
    <g id="ytick_12">
     <g id="line2d_20">
      <g>
       <use xlink:href="#md217e9de7a" x="45.478125" y="151.641155" style="stroke: #000000; stroke-width: 0.6"/>
      </g>
     </g>
    </g>
    <g id="ytick_13">
     <g id="line2d_21">
      <g>
       <use xlink:href="#md217e9de7a" x="45.478125" y="138.352762" style="stroke: #000000; stroke-width: 0.6"/>
      </g>
     </g>
    </g>
    <g id="ytick_14">
     <g id="line2d_22">
      <g>
       <use xlink:href="#md217e9de7a" x="45.478125" y="128.045485" style="stroke: #000000; stroke-width: 0.6"/>
      </g>
     </g>
    </g>
    <g id="ytick_15">
     <g id="line2d_23">
      <g>
       <use xlink:href="#md217e9de7a" x="45.478125" y="119.623826" style="stroke: #000000; stroke-width: 0.6"/>
      </g>
     </g>
    </g>
    <g id="ytick_16">
     <g id="line2d_24">
      <g>
       <use xlink:href="#md217e9de7a" x="45.478125" y="112.503414" style="stroke: #000000; stroke-width: 0.6"/>
      </g>
     </g>
    </g>
    <g id="ytick_17">
     <g id="line2d_25">
      <g>
       <use xlink:href="#md217e9de7a" x="45.478125" y="106.335433" style="stroke: #000000; stroke-width: 0.6"/>
      </g>
     </g>
    </g>
    <g id="ytick_18">
     <g id="line2d_26">
      <g>
       <use xlink:href="#md217e9de7a" x="45.478125" y="100.894889" style="stroke: #000000; stroke-width: 0.6"/>
      </g>
     </g>
    </g>
    <g id="ytick_19">
     <g id="line2d_27">
      <g>
       <use xlink:href="#md217e9de7a" x="45.478125" y="64.010827" style="stroke: #000000; stroke-width: 0.6"/>
      </g>
     </g>
    </g>
    <g id="ytick_20">
     <g id="line2d_28">
      <g>
       <use xlink:href="#md217e9de7a" x="45.478125" y="45.28189" style="stroke: #000000; stroke-width: 0.6"/>
      </g>
     </g>
    </g>
    <g id="ytick_21">
     <g id="line2d_29">
      <g>
       <use xlink:href="#md217e9de7a" x="45.478125" y="31.993498" style="stroke: #000000; stroke-width: 0.6"/>
      </g>
     </g>
    </g>
    <g id="text_12">
     <!-- Runtime (ms, log scale) -->
     <g transform="translate(14.798438 214.496) rotate(-90) scale(0.1 -0.1)">
      <defs>
       <path id="DejaVuSans-52" d="M 2841 2188 
Q 3044 2119 3236 1894 
Q 3428 1669 3622 1275 
L 4263 0 
L 3584 0 
L 2988 1197 
Q 2756 1666 2539 1819 
Q 2322 1972 1947 1972 
L 1259 1972 
L 1259 0 
L 628 0 
L 628 4666 
L 2053 4666 
Q 2853 4666 3247 4331 
Q 3641 3997 3641 3322 
Q 3641 2881 3436 2590 
Q 3231 2300 2841 2188 
z
M 1259 4147 
L 1259 2491 
L 2053 2491 
Q 2509 2491 2742 2702 
Q 2975 2913 2975 3322 
Q 2975 3731 2742 3939 
Q 2509 4147 2053 4147 
L 1259 4147 
z
" transform="scale(0.015625)"/>
       <path id="DejaVuSans-75" d="M 544 1381 
L 544 3500 
L 1119 3500 
L 1119 1403 
Q 1119 906 1312 657 
Q 1506 409 1894 409 
Q 2359 409 2629 706 
Q 2900 1003 2900 1516 
L 2900 3500 
L 3475 3500 
L 3475 0 
L 2900 0 
L 2900 538 
Q 2691 219 2414 64 
Q 2138 -91 1772 -91 
Q 1169 -91 856 284 
Q 544 659 544 1381 
z
M 1991 3584 
L 1991 3584 
z
" transform="scale(0.015625)"/>
       <path id="DejaVuSans-6e" d="M 3513 2113 
L 3513 0 
L 2938 0 
L 2938 2094 
Q 2938 2591 2744 2837 
Q 2550 3084 2163 3084 
Q 1697 3084 1428 2787 
Q 1159 2491 1159 1978 
L 1159 0 
L 581 0 
L 581 3500 
L 1159 3500 
L 1159 2956 
Q 1366 3272 1645 3428 
Q 1925 3584 2291 3584 
Q 2894 3584 3203 3211 
Q 3513 2838 3513 2113 
z
" transform="scale(0.015625)"/>
       <path id="DejaVuSans-74" d="M 1172 4494 
L 1172 3500 
L 2356 3500 
L 2356 3053 
L 1172 3053 
L 1172 1153 
Q 1172 725 1289 603 
Q 1406 481 1766 481 
L 2356 481 
L 2356 0 
L 1766 0 
Q 1100 0 847 248 
Q 594 497 594 1153 
L 594 3053 
L 172 3053 
L 172 3500 
L 594 3500 
L 594 4494 
L 1172 4494 
z
" transform="scale(0.015625)"/>
       <path id="DejaVuSans-69" d="M 603 3500 
L 1178 3500 
L 1178 0 
L 603 0 
L 603 3500 
z
M 603 4863 
L 1178 4863 
L 1178 4134 
L 603 4134 
L 603 4863 
z
" transform="scale(0.015625)"/>
       <path id="DejaVuSans-6d" d="M 3328 2828 
Q 3544 3216 3844 3400 
Q 4144 3584 4550 3584 
Q 5097 3584 5394 3201 
Q 5691 2819 5691 2113 
L 5691 0 
L 5113 0 
L 5113 2094 
Q 5113 2597 4934 2840 
Q 4756 3084 4391 3084 
Q 3944 3084 3684 2787 
Q 3425 2491 3425 1978 
L 3425 0 
L 2847 0 
L 2847 2094 
Q 2847 2600 2669 2842 
Q 2491 3084 2119 3084 
Q 1678 3084 1418 2786 
Q 1159 2488 1159 1978 
L 1159 0 
L 581 0 
L 581 3500 
L 1159 3500 
L 1159 2956 
Q 1356 3278 1631 3431 
Q 1906 3584 2284 3584 
Q 2666 3584 2933 3390 
Q 3200 3197 3328 2828 
z
" transform="scale(0.015625)"/>
       <path id="DejaVuSans-2c" d="M 750 794 
L 1409 794 
L 1409 256 
L 897 -744 
L 494 -744 
L 750 256 
L 750 794 
z
" transform="scale(0.015625)"/>
      </defs>
      <use xlink:href="#DejaVuSans-52"/>
      <use xlink:href="#DejaVuSans-75" x="64.982422"/>
      <use xlink:href="#DejaVuSans-6e" x="128.361328"/>
      <use xlink:href="#DejaVuSans-74" x="191.740234"/>
      <use xlink:href="#DejaVuSans-69" x="230.949219"/>
      <use xlink:href="#DejaVuSans-6d" x="258.732422"/>
      <use xlink:href="#DejaVuSans-65" x="356.144531"/>
      <use xlink:href="#DejaVuSans-20" x="417.667969"/>
      <use xlink:href="#DejaVuSans-28" x="449.455078"/>
      <use xlink:href="#DejaVuSans-6d" x="488.46875"/>
      <use xlink:href="#DejaVuSans-73" x="585.880859"/>
      <use xlink:href="#DejaVuSans-2c" x="637.980469"/>
      <use xlink:href="#DejaVuSans-20" x="669.767578"/>
      <use xlink:href="#DejaVuSans-6c" x="701.554688"/>
      <use xlink:href="#DejaVuSans-6f" x="729.337891"/>
      <use xlink:href="#DejaVuSans-67" x="790.519531"/>
      <use xlink:href="#DejaVuSans-20" x="853.996094"/>
      <use xlink:href="#DejaVuSans-73" x="885.783203"/>
      <use xlink:href="#DejaVuSans-63" x="937.882812"/>
      <use xlink:href="#DejaVuSans-61" x="992.863281"/>
      <use xlink:href="#DejaVuSans-6c" x="1054.142578"/>
      <use xlink:href="#DejaVuSans-65" x="1081.925781"/>
      <use xlink:href="#DejaVuSans-29" x="1143.449219"/>
     </g>
    </g>
   </g>
   <g id="line2d_30">
    <path d="M 61.710852 35.134382 
L 108.090073 59.728263 
L 154.469294 77.72607 
L 200.848515 91.335632 
L 247.227735 103.282814 
L 293.606956 108.328208 
L 339.986177 113.181788 
L 386.365398 115.474231 
" clip-path="url(#p69549f31f3)" style="fill: none; stroke: #1f77b4; stroke-width: 1.5; stroke-linecap: square"/>
    <defs>
     <path id="m787489c219" d="M 0 1 
C 0.265203 1 0.51958 0.894634 0.707107 0.707107 
C 0.894634 0.51958 1 0.265203 1 0 
C 1 -0.265203 0.894634 -0.51958 0.707107 -0.707107 
C 0.51958 -0.894634 0.265203 -1 0 -1 
C -0.265203 -1 -0.51958 -0.894634 -0.707107 -0.707107 
C -0.894634 -0.51958 -1 -0.265203 -1 0 
C -1 0.265203 -0.894634 0.51958 -0.707107 0.707107 
C -0.51958 0.894634 -0.265203 1 0 1 
z
" style="stroke: #1f77b4"/>
    </defs>
    <g clip-path="url(#p69549f31f3)">
     <use xlink:href="#m787489c219" x="61.710852" y="35.134382" style="fill: #1f77b4; stroke: #1f77b4"/>
     <use xlink:href="#m787489c219" x="108.090073" y="59.728263" style="fill: #1f77b4; stroke: #1f77b4"/>
     <use xlink:href="#m787489c219" x="154.469294" y="77.72607" style="fill: #1f77b4; stroke: #1f77b4"/>
     <use xlink:href="#m787489c219" x="200.848515" y="91.335632" style="fill: #1f77b4; stroke: #1f77b4"/>
     <use xlink:href="#m787489c219" x="247.227735" y="103.282814" style="fill: #1f77b4; stroke: #1f77b4"/>
     <use xlink:href="#m787489c219" x="293.606956" y="108.328208" style="fill: #1f77b4; stroke: #1f77b4"/>
     <use xlink:href="#m787489c219" x="339.986177" y="113.181788" style="fill: #1f77b4; stroke: #1f77b4"/>
     <use xlink:href="#m787489c219" x="386.365398" y="115.474231" style="fill: #1f77b4; stroke: #1f77b4"/>
    </g>
   </g>
   <g id="line2d_31">
    <path d="M 61.710852 37.116365 
L 108.090073 62.82902 
L 154.469294 83.619959 
L 200.848515 100.699785 
L 247.227735 115.194241 
L 293.606956 124.024908 
L 339.986177 128.232658 
L 386.365398 129.023804 
" clip-path="url(#p69549f31f3)" style="fill: none; stroke: #ff7f0e; stroke-width: 1.5; stroke-linecap: square"/>
    <defs>
     <path id="m775f1e7081" d="M 0 1 
C 0.265203 1 0.51958 0.894634 0.707107 0.707107 
C 0.894634 0.51958 1 0.265203 1 0 
C 1 -0.265203 0.894634 -0.51958 0.707107 -0.707107 
C 0.51958 -0.894634 0.265203 -1 0 -1 
C -0.265203 -1 -0.51958 -0.894634 -0.707107 -0.707107 
C -0.894634 -0.51958 -1 -0.265203 -1 0 
C -1 0.265203 -0.894634 0.51958 -0.707107 0.707107 
C -0.51958 0.894634 -0.265203 1 0 1 
z
" style="stroke: #ff7f0e"/>
    </defs>
    <g clip-path="url(#p69549f31f3)">
     <use xlink:href="#m775f1e7081" x="61.710852" y="37.116365" style="fill: #ff7f0e; stroke: #ff7f0e"/>
     <use xlink:href="#m775f1e7081" x="108.090073" y="62.82902" style="fill: #ff7f0e; stroke: #ff7f0e"/>
     <use xlink:href="#m775f1e7081" x="154.469294" y="83.619959" style="fill: #ff7f0e; stroke: #ff7f0e"/>
     <use xlink:href="#m775f1e7081" x="200.848515" y="100.699785" style="fill: #ff7f0e; stroke: #ff7f0e"/>
     <use xlink:href="#m775f1e7081" x="247.227735" y="115.194241" style="fill: #ff7f0e; stroke: #ff7f0e"/>
     <use xlink:href="#m775f1e7081" x="293.606956" y="124.024908" style="fill: #ff7f0e; stroke: #ff7f0e"/>
     <use xlink:href="#m775f1e7081" x="339.986177" y="128.232658" style="fill: #ff7f0e; stroke: #ff7f0e"/>
     <use xlink:href="#m775f1e7081" x="386.365398" y="129.023804" style="fill: #ff7f0e; stroke: #ff7f0e"/>
    </g>
   </g>
   <g id="line2d_32">
    <path d="M 61.710852 52.212822 
L 108.090073 73.717679 
L 154.469294 90.466504 
L 200.848515 100.804461 
L 247.227735 112.854055 
L 293.606956 120.168411 
L 339.986177 125.190669 
L 386.365398 124.178319 
" clip-path="url(#p69549f31f3)" style="fill: none; stroke: #2ca02c; stroke-width: 1.5; stroke-linecap: square"/>
    <defs>
     <path id="m1b22ca8970" d="M 0 1 
C 0.265203 1 0.51958 0.894634 0.707107 0.707107 
C 0.894634 0.51958 1 0.265203 1 0 
C 1 -0.265203 0.894634 -0.51958 0.707107 -0.707107 
C 0.51958 -0.894634 0.265203 -1 0 -1 
C -0.265203 -1 -0.51958 -0.894634 -0.707107 -0.707107 
C -0.894634 -0.51958 -1 -0.265203 -1 0 
C -1 0.265203 -0.894634 0.51958 -0.707107 0.707107 
C -0.51958 0.894634 -0.265203 1 0 1 
z
" style="stroke: #2ca02c"/>
    </defs>
    <g clip-path="url(#p69549f31f3)">
     <use xlink:href="#m1b22ca8970" x="61.710852" y="52.212822" style="fill: #2ca02c; stroke: #2ca02c"/>
     <use xlink:href="#m1b22ca8970" x="108.090073" y="73.717679" style="fill: #2ca02c; stroke: #2ca02c"/>
     <use xlink:href="#m1b22ca8970" x="154.469294" y="90.466504" style="fill: #2ca02c; stroke: #2ca02c"/>
     <use xlink:href="#m1b22ca8970" x="200.848515" y="100.804461" style="fill: #2ca02c; stroke: #2ca02c"/>
     <use xlink:href="#m1b22ca8970" x="247.227735" y="112.854055" style="fill: #2ca02c; stroke: #2ca02c"/>
     <use xlink:href="#m1b22ca8970" x="293.606956" y="120.168411" style="fill: #2ca02c; stroke: #2ca02c"/>
     <use xlink:href="#m1b22ca8970" x="339.986177" y="125.190669" style="fill: #2ca02c; stroke: #2ca02c"/>
     <use xlink:href="#m1b22ca8970" x="386.365398" y="124.178319" style="fill: #2ca02c; stroke: #2ca02c"/>
    </g>
   </g>
   <g id="line2d_33">
    <path d="M 61.710852 52.212822 
L 108.090073 84.230151 
L 154.469294 116.24748 
L 200.848515 148.264809 
L 247.227735 180.282138 
L 293.606956 212.299467 
L 339.986177 244.316796 
L 386.365398 276.334125 
" clip-path="url(#p69549f31f3)" style="fill: none; stroke-dasharray: 5.55,2.4; stroke-dashoffset: 0; stroke: #808080; stroke-width: 1.5"/>
   </g>
   <g id="LineCollection_1">
    <path d="M 61.710852 35.866048 
L 61.710852 34.414125 
" clip-path="url(#p69549f31f3)" style="fill: none; stroke: #1f77b4; stroke-width: 1.5"/>
    <path d="M 108.090073 60.410037 
L 108.090073 59.056407 
" clip-path="url(#p69549f31f3)" style="fill: none; stroke: #1f77b4; stroke-width: 1.5"/>
    <path d="M 154.469294 78.231855 
L 154.469294 77.225764 
" clip-path="url(#p69549f31f3)" style="fill: none; stroke: #1f77b4; stroke-width: 1.5"/>
    <path d="M 200.848515 92.077539 
L 200.848515 90.605454 
" clip-path="url(#p69549f31f3)" style="fill: none; stroke: #1f77b4; stroke-width: 1.5"/>
    <path d="M 247.227735 104.460738 
L 247.227735 102.134183 
" clip-path="url(#p69549f31f3)" style="fill: none; stroke: #1f77b4; stroke-width: 1.5"/>
    <path d="M 293.606956 109.494985 
L 293.606956 107.190179 
" clip-path="url(#p69549f31f3)" style="fill: none; stroke: #1f77b4; stroke-width: 1.5"/>
    <path d="M 339.986177 114.667033 
L 339.986177 111.742816 
" clip-path="url(#p69549f31f3)" style="fill: none; stroke: #1f77b4; stroke-width: 1.5"/>
    <path d="M 386.365398 116.456941 
L 386.365398 114.511993 
" clip-path="url(#p69549f31f3)" style="fill: none; stroke: #1f77b4; stroke-width: 1.5"/>
   </g>
   <g id="LineCollection_2">
    <path d="M 61.710852 38.384511 
L 61.710852 35.882107 
" clip-path="url(#p69549f31f3)" style="fill: none; stroke: #ff7f0e; stroke-width: 1.5"/>
    <path d="M 108.090073 63.889879 
L 108.090073 61.791979 
" clip-path="url(#p69549f31f3)" style="fill: none; stroke: #ff7f0e; stroke-width: 1.5"/>
    <path d="M 154.469294 84.306205 
L 154.469294 82.943759 
" clip-path="url(#p69549f31f3)" style="fill: none; stroke: #ff7f0e; stroke-width: 1.5"/>
    <path d="M 200.848515 101.569422 
L 200.848515 99.846218 
" clip-path="url(#p69549f31f3)" style="fill: none; stroke: #ff7f0e; stroke-width: 1.5"/>
    <path d="M 247.227735 116.220125 
L 247.227735 114.190646 
" clip-path="url(#p69549f31f3)" style="fill: none; stroke: #ff7f0e; stroke-width: 1.5"/>
    <path d="M 293.606956 125.574269 
L 293.606956 122.525834 
" clip-path="url(#p69549f31f3)" style="fill: none; stroke: #ff7f0e; stroke-width: 1.5"/>
    <path d="M 339.986177 128.992196 
L 339.986177 127.485407 
" clip-path="url(#p69549f31f3)" style="fill: none; stroke: #ff7f0e; stroke-width: 1.5"/>
    <path d="M 386.365398 130.503966 
L 386.365398 127.589605 
" clip-path="url(#p69549f31f3)" style="fill: none; stroke: #ff7f0e; stroke-width: 1.5"/>
   </g>
   <g id="LineCollection_3">
    <path d="M 61.710852 52.439426 
L 61.710852 51.987324 
" clip-path="url(#p69549f31f3)" style="fill: none; stroke: #2ca02c; stroke-width: 1.5"/>
    <path d="M 108.090073 74.131181 
L 108.090073 73.307845 
" clip-path="url(#p69549f31f3)" style="fill: none; stroke: #2ca02c; stroke-width: 1.5"/>
    <path d="M 154.469294 90.939347 
L 154.469294 89.998451 
" clip-path="url(#p69549f31f3)" style="fill: none; stroke: #2ca02c; stroke-width: 1.5"/>
    <path d="M 200.848515 101.520763 
L 200.848515 100.099098 
" clip-path="url(#p69549f31f3)" style="fill: none; stroke: #2ca02c; stroke-width: 1.5"/>
    <path d="M 247.227735 114.94756 
L 247.227735 110.851332 
" clip-path="url(#p69549f31f3)" style="fill: none; stroke: #2ca02c; stroke-width: 1.5"/>
    <path d="M 293.606956 121.696505 
L 293.606956 118.689255 
" clip-path="url(#p69549f31f3)" style="fill: none; stroke: #2ca02c; stroke-width: 1.5"/>
    <path d="M 339.986177 126.258607 
L 339.986177 124.146865 
" clip-path="url(#p69549f31f3)" style="fill: none; stroke: #2ca02c; stroke-width: 1.5"/>
    <path d="M 386.365398 125.368812 
L 386.365398 123.01774 
" clip-path="url(#p69549f31f3)" style="fill: none; stroke: #2ca02c; stroke-width: 1.5"/>
   </g>
   <g id="patch_3">
    <path d="M 45.478125 288.430125 
L 45.478125 22.318125 
" style="fill: none; stroke: #000000; stroke-width: 0.8; stroke-linejoin: miter; stroke-linecap: square"/>
   </g>
   <g id="patch_4">
    <path d="M 402.598125 288.430125 
L 402.598125 22.318125 
" style="fill: none; stroke: #000000; stroke-width: 0.8; stroke-linejoin: miter; stroke-linecap: square"/>
   </g>
   <g id="patch_5">
    <path d="M 45.478125 288.430125 
L 402.598125 288.430125 
" style="fill: none; stroke: #000000; stroke-width: 0.8; stroke-linejoin: miter; stroke-linecap: square"/>
   </g>
   <g id="patch_6">
    <path d="M 45.478125 22.318125 
L 402.598125 22.318125 
" style="fill: none; stroke: #000000; stroke-width: 0.8; stroke-linejoin: miter; stroke-linecap: square"/>
   </g>
   <g id="text_13">
    <!-- Runtime for fixed-size work (lower is better) -->
    <g transform="translate(92.085 16.318125) scale(0.12 -0.12)">
     <defs>
      <path id="DejaVuSans-66" d="M 2375 4863 
L 2375 4384 
L 1825 4384 
Q 1516 4384 1395 4259 
Q 1275 4134 1275 3809 
L 1275 3500 
L 2222 3500 
L 2222 3053 
L 1275 3053 
L 1275 0 
L 697 0 
L 697 3053 
L 147 3053 
L 147 3500 
L 697 3500 
L 697 3744 
Q 697 4328 969 4595 
Q 1241 4863 1831 4863 
L 2375 4863 
z
" transform="scale(0.015625)"/>
      <path id="DejaVuSans-78" d="M 3513 3500 
L 2247 1797 
L 3578 0 
L 2900 0 
L 1881 1375 
L 863 0 
L 184 0 
L 1544 1831 
L 300 3500 
L 978 3500 
L 1906 2253 
L 2834 3500 
L 3513 3500 
z
" transform="scale(0.015625)"/>
      <path id="DejaVuSans-2d" d="M 313 2009 
L 1997 2009 
L 1997 1497 
L 313 1497 
L 313 2009 
z
" transform="scale(0.015625)"/>
      <path id="DejaVuSans-7a" d="M 353 3500 
L 3084 3500 
L 3084 2975 
L 922 459 
L 3084 459 
L 3084 0 
L 275 0 
L 275 525 
L 2438 3041 
L 353 3041 
L 353 3500 
z
" transform="scale(0.015625)"/>
      <path id="DejaVuSans-77" d="M 269 3500 
L 844 3500 
L 1563 769 
L 2278 3500 
L 2956 3500 
L 3675 769 
L 4391 3500 
L 4966 3500 
L 4050 0 
L 3372 0 
L 2619 2869 
L 1863 0 
L 1184 0 
L 269 3500 
z
" transform="scale(0.015625)"/>
      <path id="DejaVuSans-6b" d="M 581 4863 
L 1159 4863 
L 1159 1991 
L 2875 3500 
L 3609 3500 
L 1753 1863 
L 3688 0 
L 2938 0 
L 1159 1709 
L 1159 0 
L 581 0 
L 581 4863 
z
" transform="scale(0.015625)"/>
      <path id="DejaVuSans-62" d="M 3116 1747 
Q 3116 2381 2855 2742 
Q 2594 3103 2138 3103 
Q 1681 3103 1420 2742 
Q 1159 2381 1159 1747 
Q 1159 1113 1420 752 
Q 1681 391 2138 391 
Q 2594 391 2855 752 
Q 3116 1113 3116 1747 
z
M 1159 2969 
Q 1341 3281 1617 3432 
Q 1894 3584 2278 3584 
Q 2916 3584 3314 3078 
Q 3713 2572 3713 1747 
Q 3713 922 3314 415 
Q 2916 -91 2278 -91 
Q 1894 -91 1617 61 
Q 1341 213 1159 525 
L 1159 0 
L 581 0 
L 581 4863 
L 1159 4863 
L 1159 2969 
z
" transform="scale(0.015625)"/>
     </defs>
     <use xlink:href="#DejaVuSans-52"/>
     <use xlink:href="#DejaVuSans-75" x="64.982422"/>
     <use xlink:href="#DejaVuSans-6e" x="128.361328"/>
     <use xlink:href="#DejaVuSans-74" x="191.740234"/>
     <use xlink:href="#DejaVuSans-69" x="230.949219"/>
     <use xlink:href="#DejaVuSans-6d" x="258.732422"/>
     <use xlink:href="#DejaVuSans-65" x="356.144531"/>
     <use xlink:href="#DejaVuSans-20" x="417.667969"/>
     <use xlink:href="#DejaVuSans-66" x="449.455078"/>
     <use xlink:href="#DejaVuSans-6f" x="484.660156"/>
     <use xlink:href="#DejaVuSans-72" x="545.841797"/>
     <use xlink:href="#DejaVuSans-20" x="586.955078"/>
     <use xlink:href="#DejaVuSans-66" x="618.742188"/>
     <use xlink:href="#DejaVuSans-69" x="653.947266"/>
     <use xlink:href="#DejaVuSans-78" x="681.730469"/>
     <use xlink:href="#DejaVuSans-65" x="737.785156"/>
     <use xlink:href="#DejaVuSans-64" x="799.308594"/>
     <use xlink:href="#DejaVuSans-2d" x="862.785156"/>
     <use xlink:href="#DejaVuSans-73" x="898.869141"/>
     <use xlink:href="#DejaVuSans-69" x="950.96875"/>
     <use xlink:href="#DejaVuSans-7a" x="978.751953"/>
     <use xlink:href="#DejaVuSans-65" x="1031.242188"/>
     <use xlink:href="#DejaVuSans-20" x="1092.765625"/>
     <use xlink:href="#DejaVuSans-77" x="1124.552734"/>
     <use xlink:href="#DejaVuSans-6f" x="1206.339844"/>
     <use xlink:href="#DejaVuSans-72" x="1267.521484"/>
     <use xlink:href="#DejaVuSans-6b" x="1308.634766"/>
     <use xlink:href="#DejaVuSans-20" x="1366.544922"/>
     <use xlink:href="#DejaVuSans-28" x="1398.332031"/>
     <use xlink:href="#DejaVuSans-6c" x="1437.345703"/>
     <use xlink:href="#DejaVuSans-6f" x="1465.128906"/>
     <use xlink:href="#DejaVuSans-77" x="1526.310547"/>
     <use xlink:href="#DejaVuSans-65" x="1608.097656"/>
     <use xlink:href="#DejaVuSans-72" x="1669.621094"/>
     <use xlink:href="#DejaVuSans-20" x="1710.734375"/>
     <use xlink:href="#DejaVuSans-69" x="1742.521484"/>
     <use xlink:href="#DejaVuSans-73" x="1770.304688"/>
     <use xlink:href="#DejaVuSans-20" x="1822.404297"/>
     <use xlink:href="#DejaVuSans-62" x="1854.191406"/>
     <use xlink:href="#DejaVuSans-65" x="1917.667969"/>
     <use xlink:href="#DejaVuSans-74" x="1979.191406"/>
     <use xlink:href="#DejaVuSans-74" x="2018.400391"/>
     <use xlink:href="#DejaVuSans-65" x="2057.609375"/>
     <use xlink:href="#DejaVuSans-72" x="2119.132812"/>
     <use xlink:href="#DejaVuSans-29" x="2160.246094"/>
    </g>
   </g>
   <g id="legend_1">
    <g id="patch_7">
     <path d="M 273.241875 89.030625 
L 395.598125 89.030625 
Q 397.598125 89.030625 397.598125 87.030625 
L 397.598125 29.318125 
Q 397.598125 27.318125 395.598125 27.318125 
L 273.241875 27.318125 
Q 271.241875 27.318125 271.241875 29.318125 
L 271.241875 87.030625 
Q 271.241875 89.030625 273.241875 89.030625 
z
" style="fill: #ffffff; opacity: 0.8; stroke: #cccccc; stroke-linejoin: miter"/>
    </g>
    <g id="line2d_34">
     <path d="M 275.241875 35.416562 
L 285.241875 35.416562 
L 295.241875 35.416562 
" style="fill: none; stroke-dasharray: 5.55,2.4; stroke-dashoffset: 0; stroke: #808080; stroke-width: 1.5"/>
    </g>
    <g id="text_14">
     <!-- Ideal runtime -->
     <g transform="translate(303.241875 38.916562) scale(0.1 -0.1)">
      <defs>
       <path id="DejaVuSans-49" d="M 628 4666 
L 1259 4666 
L 1259 0 
L 628 0 
L 628 4666 
z
" transform="scale(0.015625)"/>
      </defs>
      <use xlink:href="#DejaVuSans-49"/>
      <use xlink:href="#DejaVuSans-64" x="29.492188"/>
      <use xlink:href="#DejaVuSans-65" x="92.96875"/>
      <use xlink:href="#DejaVuSans-61" x="154.492188"/>
      <use xlink:href="#DejaVuSans-6c" x="215.771484"/>
      <use xlink:href="#DejaVuSans-20" x="243.554688"/>
      <use xlink:href="#DejaVuSans-72" x="275.341797"/>
      <use xlink:href="#DejaVuSans-75" x="316.455078"/>
      <use xlink:href="#DejaVuSans-6e" x="379.833984"/>
      <use xlink:href="#DejaVuSans-74" x="443.212891"/>
      <use xlink:href="#DejaVuSans-69" x="482.421875"/>
      <use xlink:href="#DejaVuSans-6d" x="510.205078"/>
      <use xlink:href="#DejaVuSans-65" x="607.617188"/>
     </g>
    </g>
    <g id="LineCollection_4">
     <path d="M 285.241875 55.094688 
L 285.241875 45.094688 
" style="fill: none; stroke: #1f77b4; stroke-width: 1.5"/>
    </g>
    <g id="line2d_35">
     <path d="M 275.241875 50.094688 
L 295.241875 50.094688 
" style="fill: none; stroke: #1f77b4; stroke-width: 1.5; stroke-linecap: square"/>
    </g>
    <g id="line2d_36">
     <g>
      <use xlink:href="#m787489c219" x="285.241875" y="50.094688" style="fill: #1f77b4; stroke: #1f77b4"/>
     </g>
    </g>
    <g id="text_15">
     <!-- Senders (HPX) -->
     <g transform="translate(303.241875 53.594688) scale(0.1 -0.1)">
      <defs>
       <path id="DejaVuSans-53" d="M 3425 4513 
L 3425 3897 
Q 3066 4069 2747 4153 
Q 2428 4238 2131 4238 
Q 1616 4238 1336 4038 
Q 1056 3838 1056 3469 
Q 1056 3159 1242 3001 
Q 1428 2844 1947 2747 
L 2328 2669 
Q 3034 2534 3370 2195 
Q 3706 1856 3706 1288 
Q 3706 609 3251 259 
Q 2797 -91 1919 -91 
Q 1588 -91 1214 -16 
Q 841 59 441 206 
L 441 856 
Q 825 641 1194 531 
Q 1563 422 1919 422 
Q 2459 422 2753 634 
Q 3047 847 3047 1241 
Q 3047 1584 2836 1778 
Q 2625 1972 2144 2069 
L 1759 2144 
Q 1053 2284 737 2584 
Q 422 2884 422 3419 
Q 422 4038 858 4394 
Q 1294 4750 2059 4750 
Q 2388 4750 2728 4690 
Q 3069 4631 3425 4513 
z
" transform="scale(0.015625)"/>
       <path id="DejaVuSans-48" d="M 628 4666 
L 1259 4666 
L 1259 2753 
L 3553 2753 
L 3553 4666 
L 4184 4666 
L 4184 0 
L 3553 0 
L 3553 2222 
L 1259 2222 
L 1259 0 
L 628 0 
L 628 4666 
z
" transform="scale(0.015625)"/>
       <path id="DejaVuSans-50" d="M 1259 4147 
L 1259 2394 
L 2053 2394 
Q 2494 2394 2734 2622 
Q 2975 2850 2975 3272 
Q 2975 3691 2734 3919 
Q 2494 4147 2053 4147 
L 1259 4147 
z
M 628 4666 
L 2053 4666 
Q 2838 4666 3239 4311 
Q 3641 3956 3641 3272 
Q 3641 2581 3239 2228 
Q 2838 1875 2053 1875 
L 1259 1875 
L 1259 0 
L 628 0 
L 628 4666 
z
" transform="scale(0.015625)"/>
       <path id="DejaVuSans-58" d="M 403 4666 
L 1081 4666 
L 2241 2931 
L 3406 4666 
L 4084 4666 
L 2584 2425 
L 4184 0 
L 3506 0 
L 2194 1984 
L 872 0 
L 191 0 
L 1856 2491 
L 403 4666 
z
" transform="scale(0.015625)"/>
      </defs>
      <use xlink:href="#DejaVuSans-53"/>
      <use xlink:href="#DejaVuSans-65" x="63.476562"/>
      <use xlink:href="#DejaVuSans-6e" x="125"/>
      <use xlink:href="#DejaVuSans-64" x="188.378906"/>
      <use xlink:href="#DejaVuSans-65" x="251.855469"/>
      <use xlink:href="#DejaVuSans-72" x="313.378906"/>
      <use xlink:href="#DejaVuSans-73" x="354.492188"/>
      <use xlink:href="#DejaVuSans-20" x="406.591797"/>
      <use xlink:href="#DejaVuSans-28" x="438.378906"/>
      <use xlink:href="#DejaVuSans-48" x="477.392578"/>
      <use xlink:href="#DejaVuSans-50" x="552.587891"/>
      <use xlink:href="#DejaVuSans-58" x="612.890625"/>
      <use xlink:href="#DejaVuSans-29" x="681.396484"/>
     </g>
    </g>
    <g id="LineCollection_5">
     <path d="M 285.241875 69.772812 
L 285.241875 59.772812 
" style="fill: none; stroke: #ff7f0e; stroke-width: 1.5"/>
    </g>
    <g id="line2d_37">
     <path d="M 275.241875 64.772812 
L 295.241875 64.772812 
" style="fill: none; stroke: #ff7f0e; stroke-width: 1.5; stroke-linecap: square"/>
    </g>
    <g id="line2d_38">
     <g>
      <use xlink:href="#m775f1e7081" x="285.241875" y="64.772812" style="fill: #ff7f0e; stroke: #ff7f0e"/>
     </g>
    </g>
    <g id="text_16">
     <!-- Futures (HPX) -->
     <g transform="translate(303.241875 68.272812) scale(0.1 -0.1)">
      <defs>
       <path id="DejaVuSans-46" d="M 628 4666 
L 3309 4666 
L 3309 4134 
L 1259 4134 
L 1259 2759 
L 3109 2759 
L 3109 2228 
L 1259 2228 
L 1259 0 
L 628 0 
L 628 4666 
z
" transform="scale(0.015625)"/>
      </defs>
      <use xlink:href="#DejaVuSans-46"/>
      <use xlink:href="#DejaVuSans-75" x="52.019531"/>
      <use xlink:href="#DejaVuSans-74" x="115.398438"/>
      <use xlink:href="#DejaVuSans-75" x="154.607422"/>
      <use xlink:href="#DejaVuSans-72" x="217.986328"/>
      <use xlink:href="#DejaVuSans-65" x="256.849609"/>
      <use xlink:href="#DejaVuSans-73" x="318.373047"/>
      <use xlink:href="#DejaVuSans-20" x="370.472656"/>
      <use xlink:href="#DejaVuSans-28" x="402.259766"/>
      <use xlink:href="#DejaVuSans-48" x="441.273438"/>
      <use xlink:href="#DejaVuSans-50" x="516.46875"/>
      <use xlink:href="#DejaVuSans-58" x="576.771484"/>
      <use xlink:href="#DejaVuSans-29" x="645.277344"/>
     </g>
    </g>
    <g id="LineCollection_6">
     <path d="M 285.241875 84.450938 
L 285.241875 74.450938 
" style="fill: none; stroke: #2ca02c; stroke-width: 1.5"/>
    </g>
    <g id="line2d_39">
     <path d="M 275.241875 79.450938 
L 295.241875 79.450938 
" style="fill: none; stroke: #2ca02c; stroke-width: 1.5; stroke-linecap: square"/>
    </g>
    <g id="line2d_40">
     <g>
      <use xlink:href="#m1b22ca8970" x="285.241875" y="79.450938" style="fill: #2ca02c; stroke: #2ca02c"/>
     </g>
    </g>
    <g id="text_17">
     <!-- Senders (stdexec) -->
     <g transform="translate(303.241875 82.950938) scale(0.1 -0.1)">
      <use xlink:href="#DejaVuSans-53"/>
      <use xlink:href="#DejaVuSans-65" x="63.476562"/>
      <use xlink:href="#DejaVuSans-6e" x="125"/>
      <use xlink:href="#DejaVuSans-64" x="188.378906"/>
      <use xlink:href="#DejaVuSans-65" x="251.855469"/>
      <use xlink:href="#DejaVuSans-72" x="313.378906"/>
      <use xlink:href="#DejaVuSans-73" x="354.492188"/>
      <use xlink:href="#DejaVuSans-20" x="406.591797"/>
      <use xlink:href="#DejaVuSans-28" x="438.378906"/>
      <use xlink:href="#DejaVuSans-73" x="477.392578"/>
      <use xlink:href="#DejaVuSans-74" x="529.492188"/>
      <use xlink:href="#DejaVuSans-64" x="568.701172"/>
      <use xlink:href="#DejaVuSans-65" x="632.177734"/>
      <use xlink:href="#DejaVuSans-78" x="691.951172"/>
      <use xlink:href="#DejaVuSans-65" x="748.005859"/>
      <use xlink:href="#DejaVuSans-63" x="809.529297"/>
      <use xlink:href="#DejaVuSans-29" x="864.509766"/>
     </g>
    </g>
   </g>
  </g>
 </g>
 <defs>
  <clipPath id="p69549f31f3">
   <rect x="45.478125" y="22.318125" width="357.12" height="266.112"/>
  </clipPath>
 </defs>
</svg>
